<?xml version="1.0" encoding="UTF-8" ?>
<!DOCTYPE svg PUBLIC "-//W3C//DTD SVG 1.1//EN" "http://www.w3.org/Graphics/SVG/1.1/DTD/svg11.dtd">
<svg width="500pt" height="500pt" viewBox="0 0 500 500" version="1.1" xmlns="http://www.w3.org/2000/svg">
<g id="#0c090877">
<path fill="#0c0908" opacity="0.47" d=" M 214.32 183.36 C 215.75 183.23 217.17 183.10 218.60 182.97 C 217.90 187.61 217.50 192.30 217.57 197.00 C 217.76 211.93 217.58 226.87 217.74 241.80 C 216.52 241.92 215.31 242.02 214.09 242.12 C 214.18 222.54 213.76 202.94 214.32 183.36 Z" />
</g>
<g id="#191210b0">
<path fill="#191210" opacity="0.69" d=" M 218.60 182.97 C 239.53 183.13 260.46 183.22 281.39 182.94 C 282.83 186.43 283.92 190.13 283.78 193.95 C 283.48 204.45 284.54 214.96 283.53 225.45 C 283.19 225.34 282.51 225.13 282.17 225.02 C 281.83 224.91 281.14 224.68 280.79 224.56 C 281.88 212.03 281.50 199.41 281.01 186.85 C 268.64 186.27 256.26 186.75 243.88 186.63 C 237.86 186.59 231.83 186.68 225.81 186.72 C 223.53 186.70 221.26 186.77 218.99 186.84 C 218.39 196.22 219.15 205.61 218.77 215.00 C 218.48 223.37 218.95 231.74 218.71 240.10 C 218.67 240.50 218.58 241.30 218.54 241.71 L 217.74 241.80 C 217.58 226.87 217.76 211.93 217.57 197.00 C 217.50 192.30 217.90 187.61 218.60 182.97 Z" />
</g>
<g id="#110d0b66">
<path fill="#110d0b" opacity="0.40" d=" M 281.39 182.94 C 282.86 183.05 284.32 183.16 285.80 183.27 C 286.27 197.56 286.04 211.87 285.94 226.17 C 285.34 225.99 284.13 225.63 283.53 225.45 C 284.54 214.96 283.48 204.45 283.78 193.95 C 283.92 190.13 282.83 186.43 281.39 182.94 Z" />
</g>
<g id="#020202ff">
<path fill="#020202" opacity="1.00" d=" M 218.99 186.84 C 221.26 186.77 223.53 186.70 225.81 186.72 C 227.81 187.42 230.08 187.90 231.62 189.47 C 233.84 192.39 234.60 196.19 236.97 199.02 C 238.23 199.89 239.90 199.75 241.35 200.09 C 242.17 195.60 243.01 191.11 243.88 186.63 C 256.26 186.75 268.64 186.27 281.01 186.85 C 281.50 199.41 281.88 212.03 280.79 224.56 C 279.70 224.21 278.61 223.87 277.53 223.53 C 276.78 221.30 276.19 218.99 275.05 216.92 C 269.31 215.47 263.30 216.42 257.46 216.53 C 257.26 221.24 257.79 226.04 256.82 230.68 C 256.55 231.00 256.02 231.63 255.75 231.94 C 251.42 232.81 246.97 232.38 242.58 232.54 C 241.39 235.28 240.45 238.22 238.53 240.57 C 231.94 241.13 225.31 240.29 218.71 240.10 C 218.95 231.74 218.48 223.37 218.77 215.00 C 219.15 205.61 218.39 196.22 218.99 186.84 Z" />
</g>
<g id="#171617ff">
<path fill="#171617" opacity="1.00" d=" M 225.81 186.72 C 231.83 186.68 237.86 186.59 243.88 186.63 C 243.01 191.11 242.17 195.60 241.35 200.09 C 239.90 199.75 238.23 199.89 236.97 199.02 C 234.60 196.19 233.84 192.39 231.62 189.47 C 230.08 187.90 227.81 187.42 225.81 186.72 Z" />
</g>
<g id="#534037ff">
<path fill="#534037" opacity="1.00" d=" M 257.46 216.53 C 263.30 216.42 269.31 215.47 275.05 216.92 C 276.19 218.99 276.78 221.30 277.53 223.53 C 278.61 223.87 279.70 224.21 280.79 224.56 C 281.14 224.68 281.83 224.91 282.17 225.02 L 282.67 225.56 C 282.30 225.88 281.55 226.51 281.18 226.83 C 279.30 226.79 277.43 226.68 275.56 226.57 C 274.80 223.77 273.99 220.96 272.60 218.40 C 269.22 218.36 265.84 218.33 262.46 218.27 C 261.56 218.84 260.71 219.48 259.93 220.20 C 259.17 224.53 260.13 229.00 259.18 233.31 C 258.99 234.55 257.61 235.13 256.51 235.30 C 252.35 235.81 248.19 235.02 244.07 234.60 C 243.54 236.53 243.03 238.46 242.47 240.38 C 241.74 241.82 240.85 243.51 238.95 243.24 C 232.11 243.26 225.30 242.28 218.45 242.59 L 218.54 241.71 C 218.58 241.30 218.67 240.50 218.71 240.10 C 225.31 240.29 231.94 241.13 238.53 240.57 C 240.45 238.22 241.39 235.28 242.58 232.54 C 246.97 232.38 251.42 232.81 255.75 231.94 C 256.02 231.63 256.55 231.00 256.82 230.68 C 257.79 226.04 257.26 221.24 257.46 216.53 Z" />
</g>
<g id="#ab816dff">
<path fill="#ab816d" opacity="1.00" d=" M 259.93 220.20 C 260.71 219.48 261.56 218.84 262.46 218.27 C 260.47 222.81 260.69 227.80 261.41 232.59 C 262.49 232.71 263.58 232.84 264.67 232.97 C 264.97 229.78 265.27 226.59 265.58 223.41 C 268.10 223.88 270.62 224.34 273.14 224.81 C 272.97 222.67 272.78 220.53 272.60 218.40 C 273.99 220.96 274.80 223.77 275.56 226.57 C 277.43 226.68 279.30 226.79 281.18 226.83 C 281.31 233.99 281.75 241.16 281.14 248.30 C 277.13 248.34 273.07 248.72 269.09 248.04 C 266.12 246.96 264.28 244.02 261.42 242.71 C 255.25 240.65 248.05 244.60 242.47 240.38 C 243.03 238.46 243.54 236.53 244.07 234.60 C 248.19 235.02 252.35 235.81 256.51 235.30 C 257.61 235.13 258.99 234.55 259.18 233.31 C 260.13 229.00 259.17 224.53 259.93 220.20 Z" />
</g>
<g id="#c2927bff">
<path fill="#c2927b" opacity="1.00" d=" M 262.46 218.27 C 265.84 218.33 269.22 218.36 272.60 218.40 C 272.78 220.53 272.97 222.67 273.14 224.81 C 270.62 224.34 268.10 223.88 265.58 223.41 C 265.27 226.59 264.97 229.78 264.67 232.97 C 263.58 232.84 262.49 232.71 261.41 232.59 C 260.69 227.80 260.47 222.81 262.46 218.27 Z" />
</g>
<g id="#4a382f7a">
<path fill="#4a382f" opacity="0.48" d=" M 282.17 225.02 C 282.51 225.13 283.19 225.34 283.53 225.45 C 284.13 225.63 285.34 225.99 285.94 226.17 C 286.04 233.85 286.04 241.52 285.96 249.20 C 284.32 249.27 282.69 249.34 281.05 249.38 C 281.98 248.79 282.90 248.19 283.83 247.60 C 283.72 240.26 284.65 232.74 282.67 225.56 L 282.17 225.02 Z" />
</g>
<g id="#6d5245a5">
<path fill="#6d5245" opacity="0.65" d=" M 281.18 226.83 C 281.55 226.51 282.30 225.88 282.67 225.56 C 284.65 232.74 283.72 240.26 283.83 247.60 C 282.90 248.19 281.98 248.79 281.05 249.38 L 281.14 248.30 C 281.75 241.16 281.31 233.99 281.18 226.83 Z" />
</g>
<g id="#906c5afe">
<path fill="#906c5a" opacity="1.00" d=" M 242.47 240.38 C 248.05 244.60 255.25 240.65 261.42 242.71 C 264.28 244.02 266.12 246.96 269.09 248.04 C 273.07 248.72 277.13 248.34 281.14 248.30 L 281.05 249.38 C 276.29 249.47 271.51 249.24 266.77 249.86 C 266.37 249.91 265.56 250.00 265.16 250.04 C 255.55 250.84 245.87 250.53 236.24 250.20 C 235.81 250.18 234.95 250.13 234.52 250.10 C 229.20 249.07 223.66 250.02 218.43 248.55 C 218.13 246.57 218.27 244.57 218.45 242.59 C 225.30 242.28 232.11 243.26 238.95 243.24 C 240.85 243.51 241.74 241.82 242.47 240.38 M 220.08 243.74 C 219.71 244.31 218.96 245.44 218.59 246.00 C 218.95 246.56 219.68 247.69 220.05 248.25 C 224.24 248.24 228.52 248.52 232.64 247.54 C 234.31 247.39 234.65 245.57 235.44 244.42 C 230.36 243.69 225.21 243.58 220.08 243.74 Z" />
</g>
<g id="#33272177">
<path fill="#332721" opacity="0.47" d=" M 214.09 242.12 C 215.31 242.02 216.52 241.92 217.74 241.80 L 218.54 241.71 L 218.45 242.59 C 218.27 244.57 218.13 246.57 218.43 248.55 C 223.66 250.02 229.20 249.07 234.52 250.10 L 233.62 250.35 C 233.04 250.50 231.89 250.80 231.32 250.94 C 225.64 251.99 219.77 251.42 214.22 249.91 C 214.15 247.31 214.10 244.72 214.09 242.12 Z" />
</g>
<g id="#c79580ff">
<path fill="#c79580" opacity="1.00" d=" M 220.08 243.74 C 225.21 243.58 230.36 243.69 235.44 244.42 C 234.65 245.57 234.31 247.39 232.64 247.54 C 228.52 248.52 224.24 248.24 220.05 248.25 C 219.68 247.69 218.95 246.56 218.59 246.00 C 218.96 245.44 219.71 244.31 220.08 243.74 Z" />
</g>
<g id="#291f1a6f">
<path fill="#291f1a" opacity="0.44" d=" M 266.77 249.86 C 271.51 249.24 276.29 249.47 281.05 249.38 C 282.69 249.34 284.32 249.27 285.96 249.20 C 285.70 249.67 285.18 250.60 284.92 251.07 C 279.40 251.70 273.83 251.40 268.29 251.77 C 268.02 253.62 267.74 255.46 267.47 257.32 C 267.25 254.83 266.99 252.34 266.77 249.86 Z" />
</g>
<g id="#7a7a7ab1">
<path fill="#7a7a7a" opacity="0.69" d=" M 234.52 250.10 C 234.95 250.13 235.81 250.18 236.24 250.20 C 236.21 267.65 236.75 285.12 235.93 302.55 C 235.80 304.14 235.68 305.72 235.55 307.31 L 234.60 307.18 C 233.40 301.18 234.06 295.06 234.18 289.00 C 234.21 276.12 234.37 263.22 233.62 250.35 L 234.52 250.10 Z" />
</g>
<g id="#c7c7c7ff">
<path fill="#c7c7c7" opacity="1.00" d=" M 236.24 250.20 C 245.87 250.53 255.55 250.84 265.16 250.04 C 265.66 262.35 265.23 274.68 265.36 287.00 C 265.31 293.60 265.84 300.25 264.85 306.81 C 263.52 301.48 262.65 296.06 261.40 290.72 C 260.79 294.25 260.62 297.93 259.28 301.29 C 251.68 303.83 243.58 300.20 235.93 302.55 C 236.75 285.12 236.21 267.65 236.24 250.20 M 236.86 251.37 C 241.97 254.30 248.18 252.77 253.38 255.43 C 249.87 257.41 245.68 256.73 241.97 257.97 C 238.57 260.43 240.73 264.69 242.14 267.64 C 244.29 267.84 246.44 268.06 248.59 268.29 C 248.90 270.62 249.09 273.00 249.79 275.26 C 252.15 276.96 255.16 277.26 257.92 277.93 C 258.87 273.55 259.22 269.02 258.44 264.58 C 257.71 260.34 257.32 255.98 258.44 251.77 C 251.25 251.54 244.06 251.21 236.86 251.37 M 241.70 284.12 C 242.39 289.35 241.58 294.59 241.07 299.80 C 246.78 300.84 252.59 301.01 258.36 300.60 C 258.28 294.24 259.56 287.83 258.10 281.55 C 253.79 282.53 249.04 284.14 244.75 282.29 C 243.18 280.59 242.97 278.04 242.07 275.97 C 241.48 278.65 241.32 281.40 241.70 284.12 Z" />
</g>
<g id="#656564a3">
<path fill="#656564" opacity="0.64" d=" M 265.16 250.04 C 265.56 250.00 266.37 249.91 266.77 249.86 C 266.99 252.34 267.25 254.83 267.47 257.32 C 267.87 273.80 267.57 290.31 267.63 306.80 C 267.26 307.11 266.54 307.74 266.17 308.05 C 255.98 307.09 245.74 308.19 235.55 307.31 C 245.31 307.26 255.14 307.95 264.85 306.81 C 265.84 300.25 265.31 293.60 265.36 287.00 C 265.23 274.68 265.66 262.35 265.16 250.04 Z" />
</g>
<g id="#3939385a">
<path fill="#393938" opacity="0.35" d=" M 231.32 250.94 C 231.89 250.80 233.04 250.50 233.62 250.35 C 234.37 263.22 234.21 276.12 234.18 289.00 C 234.06 295.06 233.40 301.18 234.60 307.18 C 234.65 307.54 234.75 308.25 234.80 308.61 L 234.78 309.40 C 234.12 308.97 232.82 308.10 232.17 307.67 C 231.23 296.14 232.01 284.56 231.75 273.00 C 231.49 265.65 232.43 258.25 231.32 250.94 Z" />
</g>
<g id="#bdbdbdff">
<path fill="#bdbdbd" opacity="1.00" d=" M 236.86 251.37 C 244.06 251.21 251.25 251.54 258.44 251.77 C 257.32 255.98 257.71 260.34 258.44 264.58 C 259.22 269.02 258.87 273.55 257.92 277.93 C 255.16 277.26 252.15 276.96 249.79 275.26 C 249.09 273.00 248.90 270.62 248.59 268.29 C 246.44 268.06 244.29 267.84 242.14 267.64 C 240.73 264.69 238.57 260.43 241.97 257.97 C 245.68 256.73 249.87 257.41 253.38 255.43 C 248.18 252.77 241.97 254.30 236.86 251.37 Z" />
</g>
<g id="#bebebeff">
<path fill="#bebebe" opacity="1.00" d=" M 241.70 284.12 C 241.32 281.40 241.48 278.65 242.07 275.97 C 242.97 278.04 243.18 280.59 244.75 282.29 C 249.04 284.14 253.79 282.53 258.10 281.55 C 259.56 287.83 258.28 294.24 258.36 300.60 C 252.59 301.01 246.78 300.84 241.07 299.80 C 241.58 294.59 242.39 289.35 241.70 284.12 Z" />
</g>
<g id="#d9d9d9ff">
<path fill="#d9d9d9" opacity="1.00" d=" M 261.40 290.72 C 262.65 296.06 263.52 301.48 264.85 306.81 C 255.14 307.95 245.31 307.26 235.55 307.31 C 235.68 305.72 235.80 304.14 235.93 302.55 C 243.58 300.20 251.68 303.83 259.28 301.29 C 260.62 297.93 260.79 294.25 261.40 290.72 Z" />
</g>
<g id="#494949fa">
<path fill="#494949" opacity="0.98" d=" M 234.60 307.18 L 235.55 307.31 C 245.74 308.19 255.98 307.09 266.17 308.05 C 266.17 308.57 266.16 309.62 266.16 310.14 C 255.79 309.64 245.42 310.19 235.05 310.19 C 234.99 309.80 234.86 309.01 234.80 308.61 C 234.75 308.25 234.65 307.54 234.60 307.18 Z" />
</g>
<g id="#513d34a8">
<path fill="#513d34" opacity="0.66" d=" M 266.17 308.05 C 266.54 307.74 267.26 307.11 267.63 306.80 C 267.39 313.53 267.77 320.27 267.68 327.00 C 267.72 333.90 267.34 340.83 268.39 347.68 C 267.77 348.06 266.53 348.82 265.91 349.20 C 265.44 337.69 265.37 326.15 266.02 314.66 C 266.10 313.15 266.14 311.64 266.16 310.14 C 266.16 309.62 266.17 308.57 266.17 308.05 Z" />
<path fill="#513d34" opacity="0.66" d=" M 234.78 309.40 L 234.80 308.61 C 235.11 311.48 235.32 314.45 236.59 317.10 L 236.40 317.90 C 235.32 322.86 235.69 327.96 235.64 333.00 C 235.64 337.90 235.28 342.89 236.54 347.69 L 237.31 348.29 C 236.89 348.40 236.06 348.63 235.64 348.74 C 235.16 348.90 234.20 349.22 233.72 349.38 C 233.23 336.06 232.56 322.60 234.78 309.40 Z" />
</g>
<g id="#0d0b0a56">
<path fill="#0d0b0a" opacity="0.34" d=" M 232.17 307.67 C 232.82 308.10 234.12 308.97 234.78 309.40 C 232.56 322.60 233.23 336.06 233.72 349.38 C 234.26 373.77 233.44 398.18 234.13 422.57 C 233.85 432.00 232.51 441.80 235.93 450.87 C 235.21 450.83 233.77 450.77 233.05 450.74 C 232.49 447.87 232.01 444.97 231.93 442.04 C 232.31 412.02 232.05 382.00 232.13 351.99 C 231.63 337.22 231.98 322.44 232.17 307.67 Z" />
</g>
<g id="#434242ff">
<path fill="#434242" opacity="1.00" d=" M 234.80 308.61 C 234.86 309.01 234.99 309.80 235.05 310.19 C 235.36 311.87 235.52 313.57 235.93 315.23 C 245.94 314.21 255.99 315.21 266.02 314.66 C 265.37 326.15 265.44 337.69 265.91 349.20 L 265.97 350.16 C 261.40 350.16 256.84 350.19 252.27 350.32 C 252.24 368.54 252.39 386.77 252.34 405.00 C 252.25 410.62 252.82 416.30 251.91 421.88 C 250.18 425.50 246.06 426.22 242.58 427.12 C 242.42 427.97 242.26 428.83 242.11 429.69 C 249.58 432.45 257.61 433.69 265.54 432.60 C 265.28 436.76 266.07 441.01 265.10 445.10 C 264.77 447.47 261.78 446.76 260.07 447.13 C 252.12 447.02 244.17 447.22 236.23 446.85 C 235.37 439.21 236.20 431.53 235.62 423.89 C 236.98 423.35 238.34 422.82 239.71 422.29 C 240.84 409.56 239.96 396.76 240.24 384.00 C 240.08 372.78 240.60 361.56 240.18 350.35 C 238.66 349.81 237.15 349.28 235.64 348.74 C 236.06 348.63 236.89 348.40 237.31 348.29 C 238.70 348.40 240.10 348.52 241.50 348.64 C 242.11 373.35 241.17 398.10 241.90 422.81 C 242.35 422.99 243.25 423.35 243.70 423.53 C 245.67 423.39 248.18 424.04 249.37 421.97 C 249.74 419.67 249.64 417.33 249.64 415.01 C 249.43 393.43 249.89 371.84 249.30 350.27 C 254.28 347.76 260.03 348.35 265.38 347.40 C 265.48 340.60 265.39 333.80 265.47 327.00 C 265.46 323.79 265.56 320.51 264.60 317.42 C 262.13 316.73 259.55 316.74 257.02 316.75 C 250.21 316.88 243.39 316.56 236.59 317.10 C 235.32 314.45 235.11 311.48 234.80 308.61 Z" />
</g>
<g id="#050404ff">
<path fill="#050404" opacity="1.00" d=" M 235.05 310.19 C 245.42 310.19 255.79 309.64 266.16 310.14 C 266.14 311.64 266.10 313.15 266.02 314.66 C 255.99 315.21 245.94 314.21 235.93 315.23 C 235.52 313.57 235.36 311.87 235.05 310.19 Z" />
</g>
<g id="#997261fe">
<path fill="#997261" opacity="1.00" d=" M 236.59 317.10 C 243.39 316.56 250.21 316.88 257.02 316.75 C 259.55 316.74 262.13 316.73 264.60 317.42 C 265.56 320.51 265.46 323.79 265.47 327.00 C 265.39 333.80 265.48 340.60 265.38 347.40 C 260.03 348.35 254.28 347.76 249.30 350.27 C 247.46 350.33 245.62 350.36 243.79 350.37 C 243.05 364.23 243.63 378.13 243.45 392.00 C 243.58 402.51 243.15 413.03 243.70 423.53 C 243.25 423.35 242.35 422.99 241.90 422.81 C 241.17 398.10 242.11 373.35 241.50 348.64 C 240.10 348.52 238.70 348.40 237.31 348.29 L 236.54 347.69 C 238.31 347.37 240.08 347.07 241.85 346.76 C 241.90 341.95 242.07 337.15 242.32 332.34 C 246.98 332.07 251.64 331.80 256.30 331.53 C 256.76 329.30 257.25 327.08 257.75 324.87 C 258.32 329.57 258.60 334.31 258.49 339.05 C 255.81 339.90 253.14 340.77 250.47 341.63 C 250.28 343.42 250.10 345.22 249.92 347.02 C 254.50 347.44 259.12 347.36 263.69 346.75 C 264.49 337.25 262.39 327.76 263.69 318.28 C 254.59 317.57 245.46 319.49 236.40 317.90 L 236.59 317.10 Z" />
</g>
<g id="#a97e6cff">
<path fill="#a97e6c" opacity="1.00" d=" M 235.64 333.00 C 235.69 327.96 235.32 322.86 236.40 317.90 C 245.46 319.49 254.59 317.57 263.69 318.28 C 262.39 327.76 264.49 337.25 263.69 346.75 C 259.12 347.36 254.50 347.44 249.92 347.02 C 250.10 345.22 250.28 343.42 250.47 341.63 C 253.14 340.77 255.81 339.90 258.49 339.05 C 258.60 334.31 258.32 329.57 257.75 324.87 C 257.25 327.08 256.76 329.30 256.30 331.53 C 251.64 331.80 246.98 332.07 242.32 332.34 C 242.07 337.15 241.90 341.95 241.85 346.76 C 240.08 347.07 238.31 347.37 236.54 347.69 C 235.28 342.89 235.64 337.90 235.64 333.00 Z" />
</g>
<g id="#02020269">
<path fill="#020202" opacity="0.41" d=" M 268.39 347.68 C 268.85 369.45 268.45 391.23 268.59 413.00 C 268.52 424.01 268.70 435.03 268.58 446.04 C 268.73 448.10 267.96 449.94 266.19 451.05 C 267.13 444.58 267.88 437.99 266.63 431.50 C 266.14 426.68 266.31 421.83 266.31 417.00 C 266.35 401.00 266.30 385.00 266.33 369.00 C 266.33 362.72 266.48 356.43 265.97 350.16 L 265.91 349.20 C 266.53 348.82 267.77 348.06 268.39 347.68 Z" />
</g>
<g id="#090605ae">
<path fill="#090605" opacity="0.68" d=" M 233.72 349.38 C 234.20 349.22 235.16 348.90 235.64 348.74 C 235.88 373.79 235.90 398.85 235.62 423.89 C 235.25 423.56 234.50 422.90 234.13 422.57 C 233.44 398.18 234.26 373.77 233.72 349.38 Z" />
</g>
<g id="#030303f5">
<path fill="#030303" opacity="0.96" d=" M 235.64 348.74 C 237.15 349.28 238.66 349.81 240.18 350.35 C 240.60 361.56 240.08 372.78 240.24 384.00 C 239.96 396.76 240.84 409.56 239.71 422.29 C 238.34 422.82 236.98 423.35 235.62 423.89 C 235.90 398.85 235.88 373.79 235.64 348.74 Z" />
</g>
<g id="#fefefeff">
<path fill="#fefefe" opacity="1.00" d=" M 243.79 350.37 C 245.62 350.36 247.46 350.33 249.30 350.27 C 249.89 371.84 249.43 393.43 249.64 415.01 C 249.64 417.33 249.74 419.67 249.37 421.97 C 248.18 424.04 245.67 423.39 243.70 423.53 C 243.15 413.03 243.58 402.51 243.45 392.00 C 243.63 378.13 243.05 364.23 243.79 350.37 Z" />
</g>
<g id="#000100ff">
<path fill="#000100" opacity="1.00" d=" M 252.27 350.32 C 256.84 350.19 261.40 350.16 265.97 350.16 C 266.48 356.43 266.33 362.72 266.33 369.00 C 266.30 385.00 266.35 401.00 266.31 417.00 C 266.31 421.83 266.14 426.68 266.63 431.50 L 265.63 431.37 C 260.40 430.86 255.09 430.73 250.00 429.27 C 250.65 426.81 251.35 424.36 251.91 421.88 C 252.82 416.30 252.25 410.62 252.34 405.00 C 252.39 386.77 252.24 368.54 252.27 350.32 Z" />
</g>
<g id="#282828ff">
<path fill="#282828" opacity="1.00" d=" M 242.58 427.12 C 246.06 426.22 250.18 425.50 251.91 421.88 C 251.35 424.36 250.65 426.81 250.00 429.27 C 255.09 430.73 260.40 430.86 265.63 431.37 L 265.54 432.60 C 257.61 433.69 249.58 432.45 242.11 429.69 C 242.26 428.83 242.42 427.97 242.58 427.12 Z" />
</g>
<g id="#282524a2">
<path fill="#282524" opacity="0.64" d=" M 234.13 422.57 C 234.50 422.90 235.25 423.56 235.62 423.89 C 236.20 431.53 235.37 439.21 236.23 446.85 C 244.17 447.22 252.12 447.02 260.07 447.13 C 261.78 446.76 264.77 447.47 265.10 445.10 C 266.07 441.01 265.28 436.76 265.54 432.60 L 265.63 431.37 L 266.63 431.50 C 267.88 437.99 267.13 444.58 266.19 451.05 C 256.11 450.55 246.01 450.88 235.93 450.87 C 232.51 441.80 233.85 432.00 234.13 422.57 Z" />
</g>
</svg>
