<?xml version="1.0" encoding="UTF-8" ?>
<!DOCTYPE svg PUBLIC "-//W3C//DTD SVG 1.1//EN" "http://www.w3.org/Graphics/SVG/1.1/DTD/svg11.dtd">
<svg width="500pt" height="500pt" viewBox="0 0 500 500" version="1.1" xmlns="http://www.w3.org/2000/svg">
<g id="#0e0b0a75">
<path fill="#0e0b0a" opacity="0.46" d=" M 216.28 189.96 C 216.44 187.23 215.81 183.29 218.98 182.02 C 218.98 182.77 218.98 184.27 218.98 185.02 C 218.31 203.60 218.96 222.20 218.62 240.78 C 218.58 241.53 218.50 243.03 218.46 243.77 C 218.42 245.72 218.74 247.65 219.21 249.54 C 223.43 249.62 227.69 249.15 231.89 249.74 C 236.21 251.10 234.25 256.65 234.35 259.99 C 233.57 260.95 232.78 261.91 231.99 262.86 C 231.31 263.12 229.96 263.63 229.28 263.89 C 230.36 260.09 234.01 256.30 231.99 252.20 C 229.89 250.19 226.59 251.42 223.98 251.18 C 221.30 251.23 216.64 251.53 216.35 247.86 C 216.25 228.57 216.44 209.26 216.28 189.96 Z" />
</g>
<g id="#090909a4">
<path fill="#090909" opacity="0.64" d=" M 218.98 182.02 C 240.51 182.37 262.06 181.78 283.57 182.37 C 285.00 190.17 284.16 198.12 284.37 206.00 C 284.26 212.31 284.87 218.68 283.96 224.95 L 283.06 225.12 L 282.15 225.32 C 281.31 218.24 281.98 211.10 281.66 204.00 C 281.41 198.47 282.15 192.91 281.41 187.42 C 281.18 185.54 278.96 185.30 277.48 185.61 C 273.33 186.07 269.17 186.41 265.00 186.25 C 249.66 185.98 234.26 186.66 218.98 185.02 C 218.98 184.27 218.98 182.77 218.98 182.02 Z" />
</g>
<g id="#020202ff">
<path fill="#020202" opacity="1.00" d=" M 218.98 185.02 C 234.26 186.66 249.66 185.98 265.00 186.25 C 269.17 186.41 273.33 186.07 277.48 185.61 C 278.96 185.30 281.18 185.54 281.41 187.42 C 282.15 192.91 281.41 198.47 281.66 204.00 C 281.98 211.10 281.31 218.24 282.15 225.32 C 280.30 224.69 278.45 224.10 276.60 223.51 C 276.34 221.64 276.10 219.77 275.83 217.91 C 275.56 216.75 275.02 215.45 273.62 215.48 C 269.22 214.90 264.75 215.51 260.35 214.87 C 258.64 212.25 257.53 207.14 253.37 208.33 C 249.56 209.37 249.81 214.11 250.56 217.16 C 252.12 217.67 253.71 218.15 255.19 218.89 C 256.51 221.79 256.43 225.16 256.88 228.30 C 256.80 229.41 256.70 230.53 256.59 231.64 C 252.05 232.95 247.23 231.41 242.74 232.71 C 240.54 234.78 241.47 239.25 238.61 240.61 C 231.96 241.13 225.27 239.71 218.62 240.78 C 218.96 222.20 218.31 203.60 218.98 185.02 M 225.61 187.65 C 224.37 188.93 225.63 190.39 226.71 191.24 C 228.52 191.88 230.43 192.16 232.24 192.82 C 234.90 194.18 234.54 197.76 236.36 199.76 C 238.13 201.25 240.53 200.28 242.31 199.36 C 243.84 195.50 242.87 191.14 242.78 187.10 C 237.11 186.27 231.21 186.53 225.61 187.65 Z" />
</g>
<g id="#121212ff">
<path fill="#121212" opacity="1.00" d=" M 225.61 187.65 C 231.21 186.53 237.11 186.27 242.78 187.10 C 242.87 191.14 243.84 195.50 242.31 199.36 C 240.53 200.28 238.13 201.25 236.36 199.76 C 234.54 197.76 234.90 194.18 232.24 192.82 C 230.43 192.16 228.52 191.88 226.71 191.24 C 225.63 190.39 224.37 188.93 225.61 187.65 Z" />
</g>
<g id="#191a1aff">
<path fill="#191a1a" opacity="1.00" d=" M 253.37 208.33 C 257.53 207.14 258.64 212.25 260.35 214.87 C 264.75 215.51 269.22 214.90 273.62 215.48 C 275.02 215.45 275.56 216.75 275.83 217.91 C 270.62 215.51 264.45 215.73 259.00 217.03 C 256.04 219.82 257.68 224.66 256.88 228.30 C 256.43 225.16 256.51 221.79 255.19 218.89 C 253.71 218.15 252.12 217.67 250.56 217.16 C 249.81 214.11 249.56 209.37 253.37 208.33 Z" />
</g>
<g id="#45352efe">
<path fill="#45352e" opacity="1.00" d=" M 259.00 217.03 C 264.45 215.73 270.62 215.51 275.83 217.91 C 276.10 219.77 276.34 221.64 276.60 223.51 C 278.45 224.10 280.30 224.69 282.15 225.32 C 281.86 225.54 281.28 225.98 280.99 226.20 C 279.20 226.20 277.17 226.48 275.64 225.38 C 274.60 223.28 274.57 220.86 274.20 218.59 C 269.64 217.95 264.98 217.89 260.41 218.41 C 260.13 218.65 259.56 219.13 259.28 219.37 C 258.36 223.99 261.11 229.82 257.43 233.54 C 253.07 235.37 248.07 233.76 243.46 234.58 C 242.43 237.16 242.16 240.29 240.28 242.37 C 233.67 243.61 226.59 240.56 220.11 243.08 C 219.70 243.25 218.87 243.60 218.46 243.77 C 218.50 243.03 218.58 241.53 218.62 240.78 C 225.27 239.71 231.96 241.13 238.61 240.61 C 241.47 239.25 240.54 234.78 242.74 232.71 C 247.23 231.41 252.05 232.95 256.59 231.64 C 256.70 230.53 256.80 229.41 256.88 228.30 C 257.68 224.66 256.04 219.82 259.00 217.03 Z" />
</g>
<g id="#a97f6cff">
<path fill="#a97f6c" opacity="1.00" d=" M 260.41 218.41 C 264.98 217.89 269.64 217.95 274.20 218.59 C 274.57 220.86 274.60 223.28 275.64 225.38 C 277.17 226.48 279.20 226.20 280.99 226.20 C 282.32 231.38 281.13 236.76 281.91 242.00 C 282.04 244.16 283.08 246.64 281.35 248.43 C 276.70 248.13 272.03 248.26 267.40 247.66 C 266.24 246.14 265.16 244.52 263.68 243.30 C 260.45 241.85 256.80 242.03 253.33 241.91 C 253.55 242.85 253.79 243.79 254.05 244.73 C 252.27 244.36 250.24 243.91 248.95 245.56 C 247.99 246.75 247.07 247.99 246.05 249.14 C 245.67 249.21 244.90 249.34 244.52 249.41 C 245.69 247.65 246.79 245.86 247.85 244.04 C 246.31 242.94 244.64 241.98 243.36 240.57 C 243.15 238.58 243.36 236.57 243.46 234.58 C 248.07 233.76 253.07 235.37 257.43 233.54 C 261.11 229.82 258.36 223.99 259.28 219.37 C 259.56 219.13 260.13 218.65 260.41 218.41 M 260.81 219.96 C 261.04 223.87 261.05 227.79 261.57 231.68 C 261.73 232.90 263.07 233.32 263.90 234.03 C 266.03 230.77 263.68 225.95 267.03 223.37 C 268.78 224.01 270.58 224.50 272.45 224.63 C 272.83 222.88 272.97 221.10 272.86 219.31 C 268.85 219.37 264.70 218.73 260.81 219.96 Z" />
</g>
<g id="#c5947eff">
<path fill="#c5947e" opacity="1.00" d=" M 260.81 219.96 C 264.70 218.73 268.85 219.37 272.86 219.31 C 272.97 221.10 272.83 222.88 272.45 224.63 C 270.58 224.50 268.78 224.01 267.03 223.37 C 263.68 225.95 266.03 230.77 263.90 234.03 C 263.07 233.32 261.73 232.90 261.57 231.68 C 261.05 227.79 261.04 223.87 260.81 219.96 Z" />
</g>
<g id="#56443c9a">
<path fill="#56443c" opacity="0.60" d=" M 282.15 225.32 L 283.06 225.12 C 284.42 231.34 283.82 237.74 283.93 244.05 C 283.82 246.00 284.08 249.02 281.59 249.56 C 277.13 250.27 272.58 249.55 268.09 249.92 C 266.65 252.88 266.77 256.23 266.44 259.43 L 266.14 258.68 C 266.01 255.94 265.90 253.13 266.55 250.44 C 266.79 248.89 268.76 248.93 269.95 248.79 C 273.75 248.64 277.57 249.01 281.35 248.43 C 283.08 246.64 282.04 244.16 281.91 242.00 C 281.13 236.76 282.32 231.38 280.99 226.20 C 281.28 225.98 281.86 225.54 282.15 225.32 Z" />
</g>
<g id="#26211f64">
<path fill="#26211f" opacity="0.39" d=" M 283.06 225.12 L 283.96 224.95 L 284.87 225.05 C 285.69 231.00 285.09 237.02 285.35 243.00 C 285.29 245.51 285.72 248.71 283.29 250.31 C 278.91 252.55 273.87 250.21 269.32 251.17 C 266.61 253.43 267.86 257.81 269.71 260.26 C 274.34 265.68 277.74 272.10 283.18 276.82 C 287.84 280.87 291.21 286.11 295.71 290.31 C 298.76 293.28 301.17 296.81 304.21 299.80 C 306.04 301.69 308.28 303.46 308.83 306.19 C 303.29 301.93 299.72 295.71 294.08 291.61 C 292.81 290.45 291.64 289.19 290.61 287.82 C 287.36 281.83 282.14 277.29 276.91 273.07 C 276.67 272.81 276.20 272.30 275.97 272.04 C 273.55 267.29 269.86 263.43 266.44 259.43 C 266.77 256.23 266.65 252.88 268.09 249.92 C 272.58 249.55 277.13 250.27 281.59 249.56 C 284.08 249.02 283.82 246.00 283.93 244.05 C 283.82 237.74 284.42 231.34 283.06 225.12 Z" />
</g>
<g id="#926856ff">
<path fill="#926856" opacity="1.00" d=" M 240.28 242.37 C 242.16 240.29 242.43 237.16 243.46 234.58 C 243.36 236.57 243.15 238.58 243.36 240.57 C 244.64 241.98 246.31 242.94 247.85 244.04 C 246.79 245.86 245.69 247.65 244.52 249.41 C 242.97 249.59 241.42 249.72 239.88 249.88 C 239.69 248.11 239.48 246.33 239.26 244.57 C 232.93 243.52 226.49 243.66 220.11 243.08 C 226.59 240.56 233.67 243.61 240.28 242.37 Z" />
</g>
<g id="#926957ff">
<path fill="#926957" opacity="1.00" d=" M 253.33 241.91 C 256.80 242.03 260.45 241.85 263.68 243.30 C 265.16 244.52 266.24 246.14 267.40 247.66 C 272.03 248.26 276.70 248.13 281.35 248.43 C 277.57 249.01 273.75 248.64 269.95 248.79 C 268.76 248.93 266.79 248.89 266.55 250.44 C 265.90 253.13 266.01 255.94 266.14 258.68 C 265.04 255.94 265.25 252.93 265.04 250.04 C 262.58 249.79 260.08 249.73 257.67 249.17 C 255.92 248.28 255.06 246.31 254.05 244.73 C 253.79 243.79 253.55 242.85 253.33 241.91 Z" />
</g>
<g id="#b58773fe">
<path fill="#b58773" opacity="1.00" d=" M 220.11 243.08 C 226.49 243.66 232.93 243.52 239.26 244.57 C 239.48 246.33 239.69 248.11 239.88 249.88 C 238.60 250.01 237.34 250.15 236.07 250.30 C 235.55 253.52 236.14 257.10 234.35 259.99 C 234.25 256.65 236.21 251.10 231.89 249.74 C 227.69 249.15 223.43 249.62 219.21 249.54 C 218.74 247.65 218.42 245.72 218.46 243.77 C 218.87 243.60 219.70 243.25 220.11 243.08 Z" />
</g>
<g id="#7f7f7fff">
<path fill="#7f7f7f" opacity="1.00" d=" M 248.95 245.56 C 250.24 243.91 252.27 244.36 254.05 244.73 C 255.06 246.31 255.92 248.28 257.67 249.17 C 260.08 249.73 262.58 249.79 265.04 250.04 C 265.25 252.93 265.04 255.94 266.14 258.68 L 266.44 259.43 C 269.86 263.43 273.55 267.29 275.97 272.04 C 271.77 267.66 266.95 263.61 264.13 258.15 C 264.25 255.91 264.23 253.66 263.84 251.45 C 261.69 251.29 259.41 251.46 257.40 250.57 C 254.66 248.70 252.91 244.41 248.95 245.56 Z" />
<path fill="#7f7f7f" opacity="1.00" d=" M 287.79 284.97 C 287.95 286.11 288.85 287.59 287.79 288.56 C 284.53 292.05 280.47 294.70 277.24 298.24 C 273.54 302.18 268.51 304.85 265.54 309.44 C 263.88 313.74 266.52 318.27 265.87 322.65 C 264.37 323.68 262.67 324.37 261.04 325.18 C 257.83 332.23 260.57 340.22 259.68 347.61 C 258.27 350.88 253.60 349.31 251.31 351.43 C 249.75 353.24 248.66 355.39 247.51 357.48 C 238.48 374.70 229.48 391.95 220.00 408.93 C 218.37 411.01 216.78 413.19 214.66 414.81 C 211.39 415.86 207.29 411.58 209.17 408.37 C 211.42 403.01 214.93 398.24 216.74 392.67 C 224.00 378.11 232.06 363.95 239.58 349.52 C 241.64 345.08 241.70 340.07 241.82 335.27 C 239.50 334.52 237.15 333.87 234.77 333.33 L 235.22 332.54 C 236.73 331.99 238.34 331.58 239.96 331.94 C 245.42 332.75 250.89 333.95 256.45 333.53 C 257.06 330.63 257.33 327.68 257.91 324.79 C 259.77 323.31 262.36 323.19 264.57 322.46 C 264.59 321.13 264.60 319.81 264.58 318.50 C 264.48 317.04 264.31 315.59 264.16 314.14 C 263.94 310.97 264.48 307.61 267.02 305.44 C 271.31 301.94 275.48 298.31 279.43 294.42 C 282.35 291.39 286.82 289.45 287.79 284.97 M 244.56 341.52 C 243.11 343.74 243.97 346.64 242.88 348.99 C 232.02 368.28 221.97 388.01 211.24 407.37 C 209.41 409.59 211.53 412.56 214.01 412.87 C 217.20 412.21 217.49 408.25 219.02 405.92 C 228.82 387.68 238.34 369.30 248.17 351.08 C 249.40 347.55 253.55 347.96 256.56 347.41 C 258.48 345.13 256.78 342.35 255.07 340.58 C 251.67 341.96 248.01 340.99 244.56 341.52 Z" />
</g>
<g id="#c0c0c0ff">
<path fill="#c0c0c0" opacity="1.00" d=" M 248.95 245.56 C 252.91 244.41 254.66 248.70 257.40 250.57 C 259.41 251.46 261.69 251.29 263.84 251.45 C 264.23 253.66 264.25 255.91 264.13 258.15 C 263.33 256.84 262.48 255.57 261.64 254.30 C 260.45 254.26 259.27 254.23 258.08 254.20 C 258.53 258.75 261.71 262.19 264.52 265.52 C 269.94 271.76 275.21 278.12 280.76 284.24 C 282.43 285.56 280.91 287.61 279.78 288.71 C 275.18 293.15 269.99 296.95 265.36 301.36 C 264.35 302.12 264.43 303.41 264.28 304.53 C 264.96 304.75 266.33 305.21 267.02 305.44 C 264.48 307.61 263.94 310.97 264.16 314.14 C 263.33 312.24 262.56 310.00 260.43 309.24 C 258.87 310.31 257.72 313.38 255.55 312.56 C 254.52 310.86 253.91 308.92 252.68 307.34 C 249.64 304.34 245.68 302.41 242.79 299.24 C 241.40 296.04 241.68 292.40 241.07 289.01 C 245.32 294.36 250.66 298.69 255.17 303.81 C 256.46 305.15 257.66 306.65 259.31 307.58 C 260.56 307.81 261.73 307.02 262.93 306.77 C 262.70 305.24 262.93 303.47 261.69 302.32 C 258.78 298.90 255.19 296.14 252.27 292.72 C 248.80 288.94 246.24 283.99 241.27 281.93 C 241.10 284.01 240.94 286.11 240.85 288.20 L 239.93 287.79 C 239.87 285.23 238.98 282.02 241.10 280.03 C 242.33 278.55 244.35 279.39 245.98 279.36 C 241.04 274.43 236.76 268.83 234.05 262.37 C 237.42 259.85 237.04 255.34 237.66 251.62 C 240.71 251.77 244.30 252.30 246.05 249.14 C 247.07 247.99 247.99 246.75 248.95 245.56 Z" />
</g>
<g id="#9c9795ed">
<path fill="#9c9795" opacity="0.93" d=" M 244.52 249.41 C 244.90 249.34 245.67 249.21 246.05 249.14 C 244.30 252.30 240.71 251.77 237.66 251.62 C 237.04 255.34 237.42 259.85 234.05 262.37 C 233.54 262.49 232.51 262.74 231.99 262.86 C 232.78 261.91 233.57 260.95 234.35 259.99 C 236.14 257.10 235.55 253.52 236.07 250.30 C 237.34 250.15 238.60 250.01 239.88 249.88 C 241.42 249.72 242.97 249.59 244.52 249.41 Z" />
</g>
<g id="#dbdcdcff">
<path fill="#dbdcdc" opacity="1.00" d=" M 258.08 254.20 C 259.27 254.23 260.45 254.26 261.64 254.30 C 262.48 255.57 263.33 256.84 264.13 258.15 C 266.95 263.61 271.77 267.66 275.97 272.04 C 276.20 272.30 276.67 272.81 276.91 273.07 C 279.76 277.71 284.04 281.12 287.79 284.97 C 286.82 289.45 282.35 291.39 279.43 294.42 C 275.48 298.31 271.31 301.94 267.02 305.44 C 266.33 305.21 264.96 304.75 264.28 304.53 C 264.43 303.41 264.35 302.12 265.36 301.36 C 269.99 296.95 275.18 293.15 279.78 288.71 C 280.91 287.61 282.43 285.56 280.76 284.24 C 275.21 278.12 269.94 271.76 264.52 265.52 C 261.71 262.19 258.53 258.75 258.08 254.20 Z" />
</g>
<g id="#d8d8d8ff">
<path fill="#d8d8d8" opacity="1.00" d=" M 229.28 263.89 C 229.96 263.63 231.31 263.12 231.99 262.86 C 232.51 262.74 233.54 262.49 234.05 262.37 C 236.76 268.83 241.04 274.43 245.98 279.36 C 244.35 279.39 242.33 278.55 241.10 280.03 C 238.98 282.02 239.87 285.23 239.93 287.79 C 240.37 294.88 241.51 301.91 242.17 308.98 C 242.53 311.12 242.56 313.99 244.80 315.11 C 247.62 316.10 250.58 316.67 253.42 317.64 C 257.00 319.01 260.86 318.17 264.58 318.50 C 264.60 319.81 264.59 321.13 264.57 322.46 C 262.36 323.19 259.77 323.31 257.91 324.79 C 257.33 327.68 257.06 330.63 256.45 333.53 C 250.89 333.95 245.42 332.75 239.96 331.94 C 238.34 331.58 236.73 331.99 235.22 332.54 C 235.57 324.98 235.63 317.39 235.16 309.83 C 233.76 298.05 236.21 286.22 235.40 274.42 C 233.86 270.64 229.39 268.43 229.28 263.89 M 237.66 294.80 C 236.49 301.76 237.03 308.88 237.45 315.89 C 238.01 315.86 239.15 315.80 239.72 315.76 C 240.59 313.97 240.98 312.00 240.83 310.02 C 240.60 304.69 240.03 299.34 238.75 294.15 C 238.48 294.32 237.93 294.64 237.66 294.80 M 237.75 330.26 C 240.05 331.12 242.57 330.62 244.97 330.67 C 248.63 330.41 252.19 331.38 255.78 331.92 C 256.24 329.23 257.52 325.24 254.11 324.01 C 250.03 328.29 243.65 326.21 238.88 324.37 C 236.95 325.15 236.81 328.59 237.75 330.26 Z" />
</g>
<g id="#585757ff">
<path fill="#585757" opacity="1.00" d=" M 227.40 266.19 C 227.51 265.10 228.59 264.58 229.28 263.89 C 229.39 268.43 233.86 270.64 235.40 274.42 C 236.21 286.22 233.76 298.05 235.16 309.83 C 234.63 310.21 233.56 310.95 233.02 311.33 C 232.90 310.92 232.64 310.10 232.52 309.69 C 232.06 298.46 232.60 287.20 232.37 275.96 C 232.40 272.71 229.39 270.76 227.37 268.66 C 227.37 268.04 227.39 266.81 227.40 266.19 Z" />
</g>
<g id="#1814127b">
<path fill="#181412" opacity="0.48" d=" M 218.75 275.76 C 222.09 272.98 224.36 269.23 227.40 266.19 C 227.39 266.81 227.37 268.04 227.37 268.66 C 222.44 274.82 216.75 280.30 211.80 286.42 C 209.67 288.86 207.29 291.06 205.09 293.42 C 199.30 299.51 193.63 305.70 187.84 311.76 C 187.39 311.85 186.49 312.04 186.04 312.13 L 186.55 311.44 C 197.00 299.31 207.72 287.38 218.75 275.76 Z" />
</g>
<g id="#010101ff">
<path fill="#010101" opacity="1.00" d=" M 227.37 268.66 C 229.39 270.76 232.40 272.71 232.37 275.96 C 232.60 287.20 232.06 298.46 232.52 309.69 C 231.01 310.91 229.51 312.15 228.14 313.52 C 227.27 312.79 226.41 312.05 225.55 311.33 C 225.21 309.39 224.13 307.23 225.43 305.43 C 226.45 303.58 228.18 300.52 225.63 299.15 C 222.77 297.24 221.10 300.97 218.84 301.99 C 215.57 301.72 213.46 298.72 212.09 296.03 C 213.23 294.60 214.45 293.20 215.39 291.62 C 215.56 289.34 213.03 288.03 211.80 286.42 C 216.75 280.30 222.44 274.82 227.37 268.66 Z" />
<path fill="#010101" opacity="1.00" d=" M 259.68 347.61 C 260.57 340.22 257.83 332.23 261.04 325.18 C 263.00 325.36 264.97 325.57 266.93 325.81 C 266.31 333.59 266.34 341.45 267.08 349.22 C 267.66 349.11 268.25 349.00 268.84 348.90 C 271.02 353.42 272.84 358.11 275.34 362.47 C 280.80 371.83 285.32 381.70 290.67 391.13 C 293.87 399.24 300.30 405.87 302.31 414.45 C 298.38 416.15 294.70 418.33 290.90 420.29 C 286.85 418.58 287.00 413.93 285.35 410.52 C 278.86 399.58 273.26 388.13 266.97 377.07 C 264.89 373.74 264.63 368.77 260.84 366.84 C 257.10 365.56 255.57 369.94 254.50 372.62 C 252.40 376.79 256.04 380.59 257.74 384.18 C 262.96 394.27 268.56 404.17 273.73 414.29 C 276.07 417.80 273.20 421.49 272.60 425.05 C 270.18 419.93 266.74 415.33 264.96 409.91 C 261.73 403.42 256.78 397.76 254.65 390.72 C 253.82 388.84 253.61 385.62 250.95 385.58 C 248.95 384.94 247.81 386.79 247.26 388.40 C 245.44 393.44 242.12 397.71 239.70 402.46 C 236.00 412.46 229.97 421.36 225.13 430.82 C 224.27 427.19 220.39 426.19 217.60 424.45 C 215.10 423.19 213.17 421.13 211.53 418.92 C 213.67 417.24 216.23 416.10 218.19 414.20 C 219.00 412.52 219.41 410.68 220.00 408.93 C 229.48 391.95 238.48 374.70 247.51 357.48 C 248.66 355.39 249.75 353.24 251.31 351.43 C 253.60 349.31 258.27 350.88 259.68 347.61 Z" />
</g>
<g id="#5f5f5ed6">
<path fill="#5f5f5e" opacity="0.84" d=" M 276.91 273.07 C 282.14 277.29 287.36 281.83 290.61 287.82 C 286.24 292.06 281.33 295.70 277.09 300.10 C 273.86 303.52 268.88 305.76 267.47 310.57 C 265.88 315.53 267.99 320.75 266.93 325.81 C 264.97 325.57 263.00 325.36 261.04 325.18 C 262.67 324.37 264.37 323.68 265.87 322.65 C 266.52 318.27 263.88 313.74 265.54 309.44 C 268.51 304.85 273.54 302.18 277.24 298.24 C 280.47 294.70 284.53 292.05 287.79 288.56 C 288.85 287.59 287.95 286.11 287.79 284.97 C 284.04 281.12 279.76 277.71 276.91 273.07 Z" />
</g>
<g id="#aeadadff">
<path fill="#aeadad" opacity="1.00" d=" M 241.27 281.93 C 246.24 283.99 248.80 288.94 252.27 292.72 C 255.19 296.14 258.78 298.90 261.69 302.32 C 262.93 303.47 262.70 305.24 262.93 306.77 C 261.73 307.02 260.56 307.81 259.31 307.58 C 257.66 306.65 256.46 305.15 255.17 303.81 C 250.66 298.69 245.32 294.36 241.07 289.01 L 240.85 288.20 C 240.94 286.11 241.10 284.01 241.27 281.93 Z" />
</g>
<g id="#202121ff">
<path fill="#202121" opacity="1.00" d=" M 205.09 293.42 C 207.29 291.06 209.67 288.86 211.80 286.42 C 213.03 288.03 215.56 289.34 215.39 291.62 C 214.45 293.20 213.23 294.60 212.09 296.03 C 213.46 298.72 215.57 301.72 218.84 301.99 C 221.10 300.97 222.77 297.24 225.63 299.15 C 228.18 300.52 226.45 303.58 225.43 305.43 C 224.13 307.23 225.21 309.39 225.55 311.33 C 221.81 308.36 218.81 304.35 214.25 302.55 C 211.30 299.40 209.02 295.49 205.09 293.42 Z" />
</g>
<g id="#ccccccff">
<path fill="#cccccc" opacity="1.00" d=" M 239.93 287.79 L 240.85 288.20 L 241.07 289.01 C 241.68 292.40 241.40 296.04 242.79 299.24 C 245.68 302.41 249.64 304.34 252.68 307.34 C 253.91 308.92 254.52 310.86 255.55 312.56 C 257.72 313.38 258.87 310.31 260.43 309.24 C 262.56 310.00 263.33 312.24 264.16 314.14 C 264.31 315.59 264.48 317.04 264.58 318.50 C 260.86 318.17 257.00 319.01 253.42 317.64 C 250.58 316.67 247.62 316.10 244.80 315.11 C 242.56 313.99 242.53 311.12 242.17 308.98 C 241.51 301.91 240.37 294.88 239.93 287.79 Z" />
</g>
<g id="#030303ff">
<path fill="#030303" opacity="1.00" d=" M 290.61 287.82 C 291.64 289.19 292.81 290.45 294.08 291.61 C 290.63 295.29 287.64 299.49 283.43 302.40 C 279.26 305.36 275.91 309.26 272.67 313.17 C 271.00 312.71 269.34 312.21 267.70 311.67 L 267.47 310.57 C 268.88 305.76 273.86 303.52 277.09 300.10 C 281.33 295.70 286.24 292.06 290.61 287.82 Z" />
</g>
<g id="#59463df7">
<path fill="#59463d" opacity="0.97" d=" M 283.43 302.40 C 287.64 299.49 290.63 295.29 294.08 291.61 C 294.67 292.58 295.27 293.57 295.92 294.52 C 290.94 296.27 288.10 300.97 284.08 304.08 C 280.19 307.72 274.83 310.72 273.77 316.38 L 273.08 316.91 C 272.51 315.65 272.37 314.41 272.67 313.17 C 275.91 309.26 279.26 305.36 283.43 302.40 Z" />
</g>
<g id="#624a40b9">
<path fill="#624a40" opacity="0.73" d=" M 294.08 291.61 C 299.72 295.71 303.29 301.93 308.83 306.19 C 311.17 309.19 313.63 312.10 316.56 314.56 C 317.93 315.42 317.98 317.60 316.59 318.47 C 310.49 323.37 304.64 328.60 298.93 333.95 C 297.08 335.35 295.86 338.79 293.14 338.13 C 290.61 335.82 288.08 333.30 286.78 330.07 C 289.26 332.07 291.62 334.22 294.03 336.31 C 295.54 334.99 297.02 333.63 298.46 332.22 C 300.15 330.55 301.95 329.00 303.75 327.43 C 307.65 323.88 311.61 320.39 315.52 316.83 C 310.04 308.53 301.89 302.44 295.92 294.52 C 295.27 293.57 294.67 292.58 294.08 291.61 Z" />
</g>
<g id="#aa7f6bfe">
<path fill="#aa7f6b" opacity="1.00" d=" M 187.84 311.76 C 193.63 305.70 199.30 299.51 205.09 293.42 C 209.02 295.49 211.30 299.40 214.25 302.55 C 216.35 305.20 218.35 307.95 220.13 310.84 C 214.65 309.17 211.62 303.24 205.99 302.14 C 202.40 304.38 199.68 307.73 196.58 310.57 C 195.14 312.11 192.88 314.27 194.34 316.51 C 197.07 321.02 201.63 324.01 205.12 327.91 C 206.49 329.82 209.41 329.59 210.74 327.74 C 214.64 323.31 218.08 318.12 223.70 315.67 C 222.41 318.10 221.15 320.54 219.87 322.97 C 217.33 326.68 213.78 329.51 211.17 333.16 C 209.93 334.79 208.48 337.00 206.08 336.47 C 203.54 335.39 201.88 333.00 199.91 331.15 C 195.86 325.47 190.10 321.47 185.10 316.71 C 185.89 314.99 186.74 313.30 187.84 311.76 Z" />
</g>
<g id="#f1f2f2ff">
<path fill="#f1f2f2" opacity="1.00" d=" M 237.66 294.80 C 237.93 294.64 238.48 294.32 238.75 294.15 C 240.03 299.34 240.60 304.69 240.83 310.02 C 240.98 312.00 240.59 313.97 239.72 315.76 C 239.15 315.80 238.01 315.86 237.45 315.89 C 237.03 308.88 236.49 301.76 237.66 294.80 Z" />
</g>
<g id="#b58773ff">
<path fill="#b58773" opacity="1.00" d=" M 284.08 304.08 C 288.10 300.97 290.94 296.27 295.92 294.52 C 301.89 302.44 310.04 308.53 315.52 316.83 C 311.61 320.39 307.65 323.88 303.75 327.43 C 301.70 325.85 301.48 322.89 302.75 320.75 C 304.76 318.95 307.14 317.64 309.32 316.07 C 308.04 314.86 306.75 313.68 305.54 312.41 C 302.65 309.66 302.77 304.93 299.46 302.52 C 298.28 301.46 296.71 301.07 295.24 300.60 C 293.40 303.22 291.69 306.22 288.59 307.51 C 284.99 309.08 282.02 311.71 279.90 315.01 C 283.66 319.59 288.15 323.51 291.96 328.06 C 293.49 330.28 296.32 329.50 298.61 329.47 C 298.55 330.38 298.50 331.30 298.46 332.22 C 297.02 333.63 295.54 334.99 294.03 336.31 C 291.62 334.22 289.26 332.07 286.78 330.07 C 281.94 326.02 278.15 320.91 273.77 316.38 C 274.83 310.72 280.19 307.72 284.08 304.08 Z" />
</g>
<g id="#9d7664ff">
<path fill="#9d7664" opacity="1.00" d=" M 288.59 307.51 C 291.69 306.22 293.40 303.22 295.24 300.60 C 296.71 301.07 298.28 301.46 299.46 302.52 C 302.77 304.93 302.65 309.66 305.54 312.41 C 306.75 313.68 308.04 314.86 309.32 316.07 C 307.14 317.64 304.76 318.95 302.75 320.75 C 301.48 322.89 301.70 325.85 303.75 327.43 C 301.95 329.00 300.15 330.55 298.46 332.22 C 298.50 331.30 298.55 330.38 298.61 329.47 C 296.32 329.50 293.49 330.28 291.96 328.06 C 288.15 323.51 283.66 319.59 279.90 315.01 C 282.02 311.71 284.99 309.08 288.59 307.51 Z" />
</g>
<g id="#926d5dff">
<path fill="#926d5d" opacity="1.00" d=" M 196.58 310.57 C 199.68 307.73 202.40 304.38 205.99 302.14 C 211.62 303.24 214.65 309.17 220.13 310.84 C 218.35 307.95 216.35 305.20 214.25 302.55 C 218.81 304.35 221.81 308.36 225.55 311.33 C 226.41 312.05 227.27 312.79 228.14 313.52 C 226.04 317.21 223.13 320.29 219.87 322.97 C 221.15 320.54 222.41 318.10 223.70 315.67 C 218.08 318.12 214.64 323.31 210.74 327.74 C 209.41 329.59 206.49 329.82 205.12 327.91 C 201.63 324.01 197.07 321.02 194.34 316.51 C 192.88 314.27 195.14 312.11 196.58 310.57 Z" />
</g>
<g id="#291f1b77">
<path fill="#291f1b" opacity="0.47" d=" M 232.52 309.69 C 232.64 310.10 232.90 310.92 233.02 311.33 C 233.04 311.70 233.08 312.45 233.10 312.82 C 232.00 313.17 230.91 313.53 229.82 313.90 C 224.37 322.51 216.38 329.11 210.22 337.18 C 209.07 339.03 206.48 339.44 204.67 338.37 C 202.56 336.45 200.86 334.12 198.61 332.36 C 193.90 328.74 190.19 323.95 185.00 320.96 C 183.66 319.36 182.77 317.47 182.13 315.50 C 182.52 315.16 183.31 314.48 183.71 314.14 C 184.17 316.13 184.42 318.45 186.32 319.66 C 191.11 323.20 194.80 328.02 199.91 331.15 C 201.88 333.00 203.54 335.39 206.08 336.47 C 208.48 337.00 209.93 334.79 211.17 333.16 C 213.78 329.51 217.33 326.68 219.87 322.97 C 223.13 320.29 226.04 317.21 228.14 313.52 C 229.51 312.15 231.01 310.91 232.52 309.69 Z" />
</g>
<g id="#5f585583">
<path fill="#5f5855" opacity="0.51" d=" M 233.02 311.33 C 233.56 310.95 234.63 310.21 235.16 309.83 C 235.63 317.39 235.57 324.98 235.22 332.54 L 234.77 333.33 L 234.27 334.25 C 231.90 329.06 232.70 323.31 232.75 317.80 C 232.83 316.14 233.03 314.48 233.10 312.82 C 233.08 312.45 233.04 311.70 233.02 311.33 Z" />
</g>
<g id="#0a08082e">
<path fill="#0a0808" opacity="0.18" d=" M 178.19 314.29 C 180.43 312.27 183.68 311.92 186.55 311.44 L 186.04 312.13 C 185.26 312.79 184.48 313.46 183.71 314.14 C 183.31 314.48 182.52 315.16 182.13 315.50 C 182.77 317.47 183.66 319.36 185.00 320.96 C 182.06 319.73 176.83 318.59 178.19 314.29 Z" />
</g>
<g id="#100f0e60">
<path fill="#100f0e" opacity="0.38" d=" M 266.93 325.81 C 267.99 320.75 265.88 315.53 267.47 310.57 L 267.70 311.67 C 269.62 322.65 268.04 333.90 268.80 344.97 C 269.53 347.93 271.58 350.32 272.88 353.04 C 285.27 377.17 298.42 400.90 311.02 424.91 C 313.01 428.05 310.46 431.28 307.56 432.54 C 301.51 435.44 295.77 438.94 289.65 441.69 C 286.80 442.80 286.37 446.14 285.42 448.65 C 284.07 448.68 282.72 448.70 281.38 448.71 C 280.37 445.50 279.43 442.24 277.94 439.21 C 272.05 427.53 265.62 416.14 259.53 404.56 C 256.85 399.14 253.47 394.05 251.57 388.27 C 251.00 388.24 249.88 388.19 249.31 388.16 C 242.57 403.68 233.58 418.09 226.04 433.22 C 222.84 437.88 221.12 443.24 219.59 448.62 C 217.91 448.71 216.23 448.73 214.56 448.69 C 214.22 447.00 214.02 445.26 213.33 443.67 C 212.26 442.28 210.56 441.63 209.08 440.79 C 203.96 438.31 199.03 435.44 193.88 433.00 C 191.91 431.85 189.06 430.63 189.11 427.95 C 188.66 425.50 190.31 423.49 191.43 421.50 C 200.36 405.89 208.09 389.63 217.01 374.01 C 221.38 365.41 226.01 356.93 230.50 348.39 C 235.41 338.81 229.26 327.60 232.75 317.80 C 232.70 323.31 231.90 329.06 234.27 334.25 C 234.54 338.60 234.86 343.11 233.48 347.33 C 232.27 350.57 229.61 353.00 228.23 356.15 C 224.70 365.39 218.77 373.43 214.51 382.34 C 213.06 385.73 210.51 388.53 209.35 392.06 C 208.66 393.98 207.86 395.88 206.62 397.52 C 204.36 400.52 203.35 404.18 201.65 407.48 C 199.33 411.56 196.95 415.60 194.95 419.86 C 193.59 422.82 190.26 425.63 191.63 429.19 C 198.37 433.79 206.42 436.10 212.93 441.08 C 214.63 442.35 217.04 443.94 218.94 442.05 C 221.02 438.32 222.44 434.22 225.13 430.82 C 229.97 421.36 236.00 412.46 239.70 402.46 C 242.12 397.71 245.44 393.44 247.26 388.40 C 247.81 386.79 248.95 384.94 250.95 385.58 C 253.61 385.62 253.82 388.84 254.65 390.72 C 256.78 397.76 261.73 403.42 264.96 409.91 C 266.74 415.33 270.18 419.93 272.60 425.05 C 275.88 430.44 278.37 436.23 281.42 441.73 C 282.47 444.18 285.11 442.64 286.71 441.74 C 291.01 439.11 295.04 435.87 300.08 434.72 C 300.00 434.24 299.93 433.77 299.86 433.30 C 303.54 432.45 307.74 431.09 309.58 427.50 C 310.52 424.90 307.17 423.84 306.58 421.63 C 305.74 418.91 304.43 416.39 302.31 414.45 C 300.30 405.87 293.87 399.24 290.67 391.13 C 285.32 381.70 280.80 371.83 275.34 362.47 C 272.84 358.11 271.02 353.42 268.84 348.90 C 268.25 349.00 267.66 349.11 267.08 349.22 C 266.34 341.45 266.31 333.59 266.93 325.81 Z" />
</g>
<g id="#664e42b9">
<path fill="#664e42" opacity="0.73" d=" M 186.04 312.13 C 186.49 312.04 187.39 311.85 187.84 311.76 C 186.74 313.30 185.89 314.99 185.10 316.71 C 190.10 321.47 195.86 325.47 199.91 331.15 C 194.80 328.02 191.11 323.20 186.32 319.66 C 184.42 318.45 184.17 316.13 183.71 314.14 C 184.48 313.46 185.26 312.79 186.04 312.13 Z" />
</g>
<g id="#efefefff">
<path fill="#efefef" opacity="1.00" d=" M 237.75 330.26 C 236.81 328.59 236.95 325.15 238.88 324.37 C 243.65 326.21 250.03 328.29 254.11 324.01 C 257.52 325.24 256.24 329.23 255.78 331.92 C 252.19 331.38 248.63 330.41 244.97 330.67 C 242.57 330.62 240.05 331.12 237.75 330.26 Z" />
</g>
<g id="#020202fb">
<path fill="#020202" opacity="1.00" d=" M 234.27 334.25 L 234.77 333.33 C 237.15 333.87 239.50 334.52 241.82 335.27 C 241.70 340.07 241.64 345.08 239.58 349.52 C 232.06 363.95 224.00 378.11 216.74 392.67 C 211.88 398.14 210.06 405.63 205.30 411.08 C 204.08 409.88 202.86 408.68 201.65 407.48 C 203.35 404.18 204.36 400.52 206.62 397.52 C 207.86 395.88 208.66 393.98 209.35 392.06 C 210.51 388.53 213.06 385.73 214.51 382.34 C 218.77 373.43 224.70 365.39 228.23 356.15 C 229.61 353.00 232.27 350.57 233.48 347.33 C 234.86 343.11 234.54 338.60 234.27 334.25 Z" />
</g>
<g id="#fcfcfcff">
<path fill="#fcfcfc" opacity="1.00" d=" M 244.56 341.52 C 248.01 340.99 251.67 341.96 255.07 340.58 C 256.78 342.35 258.48 345.13 256.56 347.41 C 253.55 347.96 249.40 347.55 248.17 351.08 C 238.34 369.30 228.82 387.68 219.02 405.92 C 217.49 408.25 217.20 412.21 214.01 412.87 C 211.53 412.56 209.41 409.59 211.24 407.37 C 221.97 388.01 232.02 368.28 242.88 348.99 C 243.97 346.64 243.11 343.74 244.56 341.52 Z" />
</g>
<g id="#404141ff">
<path fill="#404141" opacity="1.00" d=" M 254.50 372.62 C 255.57 369.94 257.10 365.56 260.84 366.84 C 264.63 368.77 264.89 373.74 266.97 377.07 C 273.26 388.13 278.86 399.58 285.35 410.52 C 287.00 413.93 286.85 418.58 290.90 420.29 C 294.70 418.33 298.38 416.15 302.31 414.45 C 304.43 416.39 305.74 418.91 306.58 421.63 C 307.17 423.84 310.52 424.90 309.58 427.50 C 307.74 431.09 303.54 432.45 299.86 433.30 C 299.93 433.77 300.00 434.24 300.08 434.72 C 295.04 435.87 291.01 439.11 286.71 441.74 C 285.11 442.64 282.47 444.18 281.42 441.73 C 278.37 436.23 275.88 430.44 272.60 425.05 C 273.20 421.49 276.07 417.80 273.73 414.29 C 268.56 404.17 262.96 394.27 257.74 384.18 C 256.04 380.59 252.40 376.79 254.50 372.62 M 258.20 370.31 C 255.18 377.33 260.05 384.15 263.33 390.10 C 266.79 397.30 270.87 404.18 274.68 411.17 C 275.56 414.00 277.05 418.23 280.78 417.66 C 283.06 417.78 283.93 414.88 283.59 413.03 C 282.48 409.31 279.84 406.30 278.37 402.73 C 275.78 396.27 271.74 390.56 268.65 384.35 C 266.52 379.78 262.28 375.94 262.34 370.59 C 260.96 370.50 259.58 370.40 258.20 370.31 Z" />
</g>
<g id="#f9f9f9ff">
<path fill="#f9f9f9" opacity="1.00" d=" M 258.20 370.31 C 259.58 370.40 260.96 370.50 262.34 370.59 C 262.28 375.94 266.52 379.78 268.65 384.35 C 271.74 390.56 275.78 396.27 278.37 402.73 C 279.84 406.30 282.48 409.31 283.59 413.03 C 283.93 414.88 283.06 417.78 280.78 417.66 C 277.05 418.23 275.56 414.00 274.68 411.17 C 270.87 404.18 266.79 397.30 263.33 390.10 C 260.05 384.15 255.18 377.33 258.20 370.31 Z" />
</g>
<g id="#444443ff">
<path fill="#444443" opacity="1.00" d=" M 205.30 411.08 C 210.06 405.63 211.88 398.14 216.74 392.67 C 214.93 398.24 211.42 403.01 209.17 408.37 C 207.29 411.58 211.39 415.86 214.66 414.81 C 216.78 413.19 218.37 411.01 220.00 408.93 C 219.41 410.68 219.00 412.52 218.19 414.20 C 216.23 416.10 213.67 417.24 211.53 418.92 C 213.17 421.13 215.10 423.19 217.60 424.45 C 220.39 426.19 224.27 427.19 225.13 430.82 C 222.44 434.22 221.02 438.32 218.94 442.05 C 217.04 443.94 214.63 442.35 212.93 441.08 C 206.42 436.10 198.37 433.79 191.63 429.19 C 190.26 425.63 193.59 422.82 194.95 419.86 C 196.95 415.60 199.33 411.56 201.65 407.48 C 202.86 408.68 204.08 409.88 205.30 411.08 Z" />
</g>
</svg>
