<?xml version="1.0" encoding="UTF-8" ?>
<!DOCTYPE svg PUBLIC "-//W3C//DTD SVG 1.1//EN" "http://www.w3.org/Graphics/SVG/1.1/DTD/svg11.dtd">
<svg width="500pt" height="500pt" viewBox="0 0 500 500" version="1.1" xmlns="http://www.w3.org/2000/svg">
<g id="#0f0c0a5e">
<path fill="#0f0c0a" opacity="0.37" d=" M 216.11 189.95 C 216.21 186.86 216.08 182.96 219.55 181.74 C 219.31 182.69 219.09 183.64 218.87 184.59 C 218.38 187.02 218.20 189.49 218.19 191.97 C 218.35 208.68 218.31 225.40 218.21 242.12 C 218.16 244.61 218.27 247.11 218.39 249.61 C 223.12 249.64 227.88 249.64 232.56 250.45 C 227.93 251.28 222.97 252.18 218.38 250.73 C 216.05 249.85 215.99 247.14 216.01 245.05 C 216.28 226.69 216.09 208.32 216.11 189.95 Z" />
</g>
<g id="#0303039d">
<path fill="#030303" opacity="0.62" d=" M 219.55 181.74 C 240.17 182.44 260.83 181.93 281.47 182.03 C 281.65 183.33 281.84 184.64 281.96 185.96 L 281.67 186.62 C 280.96 185.57 280.26 184.52 279.56 183.47 C 273.00 186.10 265.87 185.12 259.00 185.21 C 245.62 185.21 232.23 185.42 218.87 184.59 C 219.09 183.64 219.31 182.69 219.55 181.74 Z" />
</g>
<g id="#0c0c0b63">
<path fill="#0c0c0b" opacity="0.39" d=" M 281.47 182.03 C 282.61 182.14 283.76 182.26 284.91 182.38 C 286.16 188.51 285.45 194.80 285.55 201.01 C 285.37 205.73 286.03 210.45 285.88 215.18 C 285.18 226.10 285.89 237.05 285.60 247.98 C 285.75 249.64 284.59 251.44 282.82 251.49 C 277.66 251.94 272.44 251.84 267.33 251.00 C 272.69 249.26 278.43 250.68 283.82 249.04 C 283.79 243.00 284.31 236.97 284.14 230.93 C 284.13 228.77 283.52 226.66 282.40 224.83 L 282.00 224.08 C 282.32 218.39 282.57 212.69 282.34 206.99 C 282.08 199.98 282.70 192.95 281.96 185.96 C 281.84 184.64 281.65 183.33 281.47 182.03 Z" />
</g>
<g id="#050505d9">
<path fill="#050505" opacity="0.85" d=" M 259.00 185.21 C 265.87 185.12 273.00 186.10 279.56 183.47 C 280.26 184.52 280.96 185.57 281.67 186.62 C 275.57 188.19 269.22 187.53 263.00 187.69 C 256.43 187.51 249.86 187.92 243.30 187.56 C 237.10 186.62 230.88 187.15 224.68 187.71 C 223.23 187.63 221.78 187.45 220.34 187.30 C 219.54 194.85 220.20 202.43 220.02 210.00 C 219.84 219.94 219.97 229.89 219.98 239.83 C 219.66 240.24 219.02 241.06 218.71 241.47 L 218.21 242.12 C 218.31 225.40 218.35 208.68 218.19 191.97 C 218.20 189.49 218.38 187.02 218.87 184.59 C 232.23 185.42 245.62 185.21 259.00 185.21 Z" />
</g>
<g id="#020202ff">
<path fill="#020202" opacity="1.00" d=" M 281.67 186.62 L 281.96 185.96 C 282.70 192.95 282.08 199.98 282.34 206.99 C 282.57 212.69 282.32 218.39 282.00 224.08 C 280.46 223.93 278.93 223.83 277.40 223.72 C 276.84 221.33 276.44 218.85 275.30 216.65 C 270.47 214.55 264.91 216.54 259.93 215.04 C 258.05 213.44 256.59 211.44 254.84 209.72 C 252.14 209.47 251.99 212.77 251.34 214.63 C 253.52 216.37 256.48 218.02 256.58 221.18 C 256.73 224.45 257.84 228.75 255.29 231.31 C 251.11 232.54 246.62 231.31 242.38 232.26 C 240.61 234.53 240.22 237.52 238.97 240.06 C 232.65 240.49 226.31 239.49 219.98 239.83 C 219.97 229.89 219.84 219.94 220.02 210.00 C 220.20 202.43 219.54 194.85 220.34 187.30 C 221.78 187.45 223.23 187.63 224.68 187.71 C 225.78 191.85 230.35 191.88 233.56 193.48 C 235.12 195.41 235.62 197.94 236.50 200.21 C 238.43 199.74 241.09 200.24 242.30 198.29 C 243.43 194.84 243.13 191.14 243.30 187.56 C 249.86 187.92 256.43 187.51 263.00 187.69 C 269.22 187.53 275.57 188.19 281.67 186.62 Z" />
</g>
<g id="#121212ff">
<path fill="#121212" opacity="1.00" d=" M 224.68 187.71 C 230.88 187.15 237.10 186.62 243.30 187.56 C 243.13 191.14 243.43 194.84 242.30 198.29 C 241.09 200.24 238.43 199.74 236.50 200.21 C 235.62 197.94 235.12 195.41 233.56 193.48 C 230.35 191.88 225.78 191.85 224.68 187.71 Z" />
</g>
<g id="#1d1d1dff">
<path fill="#1d1d1d" opacity="1.00" d=" M 251.34 214.63 C 251.99 212.77 252.14 209.47 254.84 209.72 C 256.59 211.44 258.05 213.44 259.93 215.04 C 264.91 216.54 270.47 214.55 275.30 216.65 C 276.44 218.85 276.84 221.33 277.40 223.72 C 278.93 223.83 280.46 223.93 282.00 224.08 L 282.40 224.83 L 281.39 224.78 C 279.72 224.75 278.05 224.76 276.38 224.77 C 275.80 222.37 275.36 219.92 274.34 217.66 C 270.70 216.37 266.75 216.52 262.97 216.83 C 261.19 217.03 258.87 217.39 258.30 219.40 C 257.34 223.78 257.81 228.30 257.66 232.75 C 252.77 233.22 247.66 232.40 242.94 233.90 C 241.64 236.28 241.04 238.96 240.33 241.56 C 233.12 242.09 225.91 240.88 218.71 241.47 C 219.02 241.06 219.66 240.24 219.98 239.83 C 226.31 239.49 232.65 240.49 238.97 240.06 C 240.22 237.52 240.61 234.53 242.38 232.26 C 246.62 231.31 251.11 232.54 255.29 231.31 C 257.84 228.75 256.73 224.45 256.58 221.18 C 256.48 218.02 253.52 216.37 251.34 214.63 Z" />
</g>
<g id="#644d43ed">
<path fill="#644d43" opacity="0.93" d=" M 258.30 219.40 C 258.87 217.39 261.19 217.03 262.97 216.83 C 266.75 216.52 270.70 216.37 274.34 217.66 C 275.36 219.92 275.80 222.37 276.38 224.77 C 278.05 224.76 279.72 224.75 281.39 224.78 C 281.43 225.45 281.49 226.79 281.52 227.46 C 279.41 226.99 277.25 226.64 275.25 225.81 C 274.46 223.47 274.05 221.02 273.28 218.67 C 269.14 218.02 264.82 217.95 260.70 218.75 C 260.44 218.98 259.91 219.44 259.64 219.68 C 258.62 224.71 262.07 231.55 257.05 235.09 C 252.48 234.74 247.89 234.36 243.31 234.83 C 242.83 237.50 242.34 240.18 241.86 242.85 C 235.47 242.96 229.07 242.55 222.70 243.13 C 221.54 243.28 220.03 243.18 219.40 244.41 C 219.27 245.78 219.32 247.16 219.32 248.54 C 224.68 248.71 230.15 248.36 235.35 249.91 C 235.05 252.96 234.83 256.03 234.35 259.07 C 234.52 256.09 234.28 252.99 232.56 250.45 C 227.88 249.64 223.12 249.64 218.39 249.61 C 218.27 247.11 218.16 244.61 218.21 242.12 L 218.71 241.47 C 225.91 240.88 233.12 242.09 240.33 241.56 C 241.04 238.96 241.64 236.28 242.94 233.90 C 247.66 232.40 252.77 233.22 257.66 232.75 C 257.81 228.30 257.34 223.78 258.30 219.40 Z" />
</g>
<g id="#a97f6cff">
<path fill="#a97f6c" opacity="1.00" d=" M 260.70 218.75 C 264.82 217.95 269.14 218.02 273.28 218.67 C 274.05 221.02 274.46 223.47 275.25 225.81 C 277.25 226.64 279.41 226.99 281.52 227.46 C 281.69 232.59 281.46 237.73 282.13 242.84 C 282.44 244.79 282.20 246.76 281.60 248.64 C 276.88 248.36 272.16 248.18 267.45 247.75 C 264.13 241.98 257.07 241.64 251.15 241.58 C 251.96 243.48 252.76 245.39 253.67 247.25 C 251.45 245.33 248.40 244.39 246.17 246.84 C 246.24 245.67 246.30 244.52 246.37 243.36 C 245.59 242.51 244.80 241.66 244.06 240.79 C 248.56 239.56 253.23 239.70 257.86 239.69 C 258.62 237.64 256.14 236.99 254.89 236.00 C 255.43 235.77 256.51 235.32 257.05 235.09 C 262.07 231.55 258.62 224.71 259.64 219.68 C 259.91 219.44 260.44 218.98 260.70 218.75 M 260.80 219.78 C 260.96 223.97 260.58 228.28 261.69 232.37 C 262.56 233.19 263.44 233.19 264.33 232.38 C 264.94 229.78 265.15 227.11 265.61 224.48 C 267.85 223.90 270.17 224.77 272.40 224.32 C 273.49 223.14 273.08 221.24 273.49 219.78 C 269.27 219.42 265.02 219.41 260.80 219.78 Z" />
</g>
<g id="#c4937dff">
<path fill="#c4937d" opacity="1.00" d=" M 260.80 219.78 C 265.02 219.41 269.27 219.42 273.49 219.78 C 273.08 221.24 273.49 223.14 272.40 224.32 C 270.17 224.77 267.85 223.90 265.61 224.48 C 265.15 227.11 264.94 229.78 264.33 232.38 C 263.44 233.19 262.56 233.19 261.69 232.37 C 260.58 228.28 260.96 223.97 260.80 219.78 Z" />
</g>
<g id="#56413799">
<path fill="#564137" opacity="0.60" d=" M 281.39 224.78 L 282.40 224.83 C 283.52 226.66 284.13 228.77 284.14 230.93 C 284.31 236.97 283.79 243.00 283.82 249.04 C 278.43 250.68 272.69 249.26 267.33 251.00 C 267.20 250.62 266.95 249.86 266.83 249.47 C 271.74 248.98 276.68 248.87 281.60 248.64 C 282.20 246.76 282.44 244.79 282.13 242.84 C 281.46 237.73 281.69 232.59 281.52 227.46 C 281.49 226.79 281.43 225.45 281.39 224.78 Z" />
</g>
<g id="#976d5dff">
<path fill="#976d5d" opacity="1.00" d=" M 243.31 234.83 C 247.89 234.36 252.48 234.74 257.05 235.09 C 256.51 235.32 255.43 235.77 254.89 236.00 C 251.26 235.87 247.51 235.00 243.97 236.14 C 243.78 237.68 243.86 239.24 244.06 240.79 C 244.80 241.66 245.59 242.51 246.37 243.36 C 246.30 244.52 246.24 245.67 246.17 246.84 C 245.11 248.01 244.10 249.24 243.10 250.47 C 240.82 250.47 238.55 250.45 236.29 250.14 L 235.35 249.91 C 230.15 248.36 224.68 248.71 219.32 248.54 C 225.06 247.99 230.92 247.75 236.37 245.69 C 231.95 244.21 227.33 243.47 222.70 243.13 C 229.07 242.55 235.47 242.96 241.86 242.85 C 242.34 240.18 242.83 237.50 243.31 234.83 Z" />
</g>
<g id="#bf8e79ff">
<path fill="#bf8e79" opacity="1.00" d=" M 243.97 236.14 C 247.51 235.00 251.26 235.87 254.89 236.00 C 256.14 236.99 258.62 237.64 257.86 239.69 C 253.23 239.70 248.56 239.56 244.06 240.79 C 243.86 239.24 243.78 237.68 243.97 236.14 Z" />
</g>
<g id="#916856ff">
<path fill="#916856" opacity="1.00" d=" M 251.15 241.58 C 257.07 241.64 264.13 241.98 267.45 247.75 C 272.16 248.18 276.88 248.36 281.60 248.64 C 276.68 248.87 271.74 248.98 266.83 249.47 C 266.46 249.51 265.74 249.59 265.37 249.62 C 261.29 250.33 256.67 250.73 253.67 247.25 C 252.76 245.39 251.96 243.48 251.15 241.58 Z" />
</g>
<g id="#c89680ff">
<path fill="#c89680" opacity="1.00" d=" M 219.40 244.41 C 220.03 243.18 221.54 243.28 222.70 243.13 C 227.33 243.47 231.95 244.21 236.37 245.69 C 230.92 247.75 225.06 247.99 219.32 248.54 C 219.32 247.16 219.27 245.78 219.40 244.41 Z" />
</g>
<g id="#c0c0c0ff">
<path fill="#c0c0c0" opacity="1.00" d=" M 246.17 246.84 C 248.40 244.39 251.45 245.33 253.67 247.25 C 256.67 250.73 261.29 250.33 265.37 249.62 C 265.44 252.88 265.07 256.21 265.77 259.43 C 267.26 261.76 269.56 263.40 271.47 265.38 C 270.08 268.76 267.21 271.22 265.64 274.46 C 264.85 280.62 266.17 286.83 266.15 293.01 C 266.56 303.27 264.49 313.61 266.35 323.80 C 266.44 321.99 266.68 320.20 266.95 318.41 L 267.45 317.47 C 267.33 320.13 267.03 322.79 266.76 325.44 C 264.31 325.34 261.86 325.35 259.43 325.65 L 258.88 326.43 C 257.86 329.24 257.01 332.11 256.08 334.96 C 249.40 333.89 242.71 332.87 235.96 332.52 C 234.92 325.07 236.00 317.54 235.61 310.07 C 235.54 308.17 233.97 306.88 232.80 305.57 C 234.31 304.89 235.83 304.20 237.35 303.52 C 231.83 297.07 224.33 292.58 219.04 285.97 C 220.38 282.59 223.46 280.41 225.95 277.93 C 229.78 274.39 232.49 269.85 236.34 266.35 C 238.00 264.66 239.99 263.16 241.08 261.01 C 241.32 259.37 241.14 257.70 241.11 256.06 C 239.65 256.60 238.18 257.15 236.72 257.70 C 236.75 255.43 236.79 253.16 236.83 250.90 C 238.91 250.74 241.00 250.59 243.10 250.47 C 244.10 249.24 245.11 248.01 246.17 246.84 M 255.21 284.19 C 250.27 289.29 246.42 295.35 241.27 300.26 C 240.20 301.49 238.71 302.53 238.22 304.15 C 237.67 306.27 240.17 307.33 241.85 307.65 C 244.35 306.29 245.80 303.70 247.76 301.74 C 250.69 298.37 255.23 296.49 257.22 292.31 C 259.00 289.11 259.77 285.47 259.89 281.84 C 258.26 282.47 256.39 282.76 255.21 284.19 M 257.62 299.55 C 255.98 300.99 254.05 302.03 252.38 303.42 C 250.27 306.33 250.17 310.21 248.20 313.20 C 246.18 315.17 243.57 316.35 241.18 317.80 C 240.72 314.92 242.19 310.58 239.10 308.94 C 237.39 311.14 238.30 313.92 238.42 316.44 C 238.79 319.61 237.62 322.66 236.78 325.67 C 237.09 327.28 235.67 330.37 238.20 330.62 C 244.06 331.68 250.06 331.64 255.91 332.85 C 256.52 329.88 256.85 326.83 257.93 323.98 C 259.77 322.71 262.23 322.83 264.32 322.10 C 264.63 318.41 263.70 314.73 264.17 311.04 C 264.70 306.14 265.23 301.20 264.89 296.26 C 265.02 292.90 265.28 289.50 264.76 286.16 C 264.64 285.00 264.04 284.19 262.97 283.73 C 258.46 287.74 259.69 294.41 257.62 299.55 Z" />
</g>
<g id="#7c7b7ac0">
<path fill="#7c7b7a" opacity="0.75" d=" M 235.35 249.91 L 236.29 250.14 C 236.54 253.97 237.18 258.36 234.58 261.58 C 231.05 266.02 226.82 269.84 223.39 274.36 C 219.89 278.98 214.93 282.48 212.49 287.87 C 212.08 287.60 211.25 287.08 210.83 286.81 C 214.98 281.05 220.04 276.04 224.65 270.65 C 227.90 266.81 231.88 263.50 234.35 259.07 C 234.83 256.03 235.05 252.96 235.35 249.91 Z" />
</g>
<g id="#d7d8d8ff">
<path fill="#d7d8d8" opacity="1.00" d=" M 236.29 250.14 C 238.55 250.45 240.82 250.47 243.10 250.47 C 241.00 250.59 238.91 250.74 236.83 250.90 C 236.79 253.16 236.75 255.43 236.72 257.70 C 238.18 257.15 239.65 256.60 241.11 256.06 C 241.14 257.70 241.32 259.37 241.08 261.01 C 239.99 263.16 238.00 264.66 236.34 266.35 C 232.49 269.85 229.78 274.39 225.95 277.93 C 223.46 280.41 220.38 282.59 219.04 285.97 C 224.33 292.58 231.83 297.07 237.35 303.52 C 235.83 304.20 234.31 304.89 232.80 305.57 C 226.09 299.62 219.85 293.03 212.49 287.87 C 214.93 282.48 219.89 278.98 223.39 274.36 C 226.82 269.84 231.05 266.02 234.58 261.58 C 237.18 258.36 236.54 253.97 236.29 250.14 Z" />
</g>
<g id="#4c4b4b9b">
<path fill="#4c4b4b" opacity="0.61" d=" M 265.37 249.62 C 265.74 249.59 266.46 249.51 266.83 249.47 C 266.95 249.86 267.20 250.62 267.33 251.00 C 267.89 253.79 267.12 256.90 268.58 259.47 C 269.91 261.34 271.74 262.77 273.41 264.33 C 273.18 265.54 272.95 266.76 272.65 267.96 C 272.27 267.09 271.88 266.23 271.47 265.38 C 269.56 263.40 267.26 261.76 265.77 259.43 C 265.07 256.21 265.44 252.88 265.37 249.62 Z" />
</g>
<g id="#352e2a78">
<path fill="#352e2a" opacity="0.47" d=" M 232.56 250.45 C 234.28 252.99 234.52 256.09 234.35 259.07 C 231.88 263.50 227.90 266.81 224.65 270.65 C 220.04 276.04 214.98 281.05 210.83 286.81 L 210.32 287.49 C 208.91 289.21 207.38 290.83 205.90 292.49 C 205.30 293.15 204.71 293.83 204.13 294.52 C 198.72 301.14 193.10 307.76 186.20 312.87 C 185.84 312.83 185.11 312.75 184.75 312.71 C 192.88 305.16 199.31 296.00 207.43 288.42 C 215.17 278.57 224.13 269.76 231.98 260.01 C 233.25 257.06 232.33 253.60 232.56 250.45 Z" />
</g>
<g id="#010101ff">
<path fill="#010101" opacity="1.00" d=" M 273.41 264.33 C 273.94 266.88 274.85 269.39 276.95 271.08 C 280.17 273.87 281.61 278.22 285.19 280.65 C 288.77 283.33 291.54 286.89 294.84 289.88 C 294.82 290.29 294.78 291.10 294.76 291.51 C 292.67 293.24 290.44 294.80 288.24 296.38 C 286.77 294.84 285.30 293.29 283.85 291.73 C 282.12 293.22 279.12 294.17 279.05 296.83 C 280.65 299.37 282.40 301.92 282.99 304.94 C 279.83 308.42 273.68 310.11 273.68 315.57 C 272.00 313.82 270.21 312.20 268.44 310.56 L 268.07 309.84 C 268.46 302.90 268.27 295.95 268.29 289.00 C 268.35 284.31 267.35 279.63 267.83 274.94 C 268.25 271.98 270.94 270.18 272.65 267.96 C 272.95 266.76 273.18 265.54 273.41 264.33 Z" />
<path fill="#010101" opacity="1.00" d=" M 259.43 325.65 C 261.86 325.35 264.31 325.34 266.76 325.44 C 266.51 331.99 266.26 338.57 266.73 345.11 C 267.02 349.57 270.99 352.43 272.64 356.36 C 279.26 370.71 287.43 384.27 294.43 398.43 C 297.57 403.55 300.51 408.78 302.82 414.34 C 298.98 415.85 295.63 418.38 291.77 419.84 C 290.49 420.44 289.11 419.81 288.20 418.88 C 287.00 416.03 286.29 412.99 284.90 410.22 C 280.30 403.49 277.09 395.98 273.07 388.92 C 267.01 377.91 261.35 366.68 255.13 355.76 C 254.16 353.94 253.59 351.94 252.98 349.98 C 255.10 349.41 257.65 349.53 259.37 348.00 C 259.81 340.57 259.30 333.10 259.43 325.65 Z" />
<path fill="#010101" opacity="1.00" d=" M 234.22 334.09 C 236.63 334.35 239.04 334.59 241.45 334.84 C 241.62 339.94 240.40 344.98 240.70 350.08 C 241.44 354.97 244.65 358.94 246.92 363.20 C 250.91 370.54 254.87 377.91 258.74 385.32 C 264.13 395.93 270.27 406.15 275.40 416.90 C 274.16 418.90 272.92 420.91 271.69 422.92 C 267.34 416.38 264.86 408.84 260.60 402.26 C 257.95 398.13 255.99 393.62 254.10 389.11 C 253.42 387.93 253.07 386.34 251.76 385.71 C 249.99 385.33 247.35 385.58 247.01 387.78 C 245.30 392.84 242.57 397.47 240.74 402.48 C 240.36 402.17 239.98 401.87 239.60 401.57 C 238.65 404.80 237.59 408.04 235.93 410.99 C 232.59 416.96 229.67 423.19 225.50 428.65 C 221.02 426.11 215.70 424.30 212.61 419.95 C 213.61 417.06 217.26 415.62 218.75 412.81 C 226.06 398.53 233.63 384.37 241.31 370.29 C 243.26 367.03 241.74 363.03 239.85 360.12 C 238.69 358.15 235.87 357.55 234.02 358.91 C 232.58 360.68 231.74 362.82 230.76 364.86 C 227.83 371.38 224.07 377.46 220.78 383.79 C 215.97 392.94 211.04 402.02 205.82 410.94 C 204.41 409.77 203.00 408.60 201.59 407.44 C 208.14 394.43 214.69 381.42 221.98 368.81 C 225.93 362.25 228.80 355.12 232.55 348.45 C 235.13 344.11 234.72 338.90 234.22 334.09 Z" />
</g>
<g id="#727272ff">
<path fill="#727272" opacity="1.00" d=" M 271.47 265.38 C 271.88 266.23 272.27 267.09 272.65 267.96 C 270.94 270.18 268.25 271.98 267.83 274.94 C 267.35 279.63 268.35 284.31 268.29 289.00 C 268.27 295.95 268.46 302.90 268.07 309.84 C 267.76 310.33 267.14 311.31 266.83 311.80 C 266.73 314.00 266.83 316.21 266.95 318.41 C 266.68 320.20 266.44 321.99 266.35 323.80 C 264.49 313.61 266.56 303.27 266.15 293.01 C 266.17 286.83 264.85 280.62 265.64 274.46 C 267.21 271.22 270.08 268.76 271.47 265.38 Z" />
</g>
<g id="#acacacff">
<path fill="#acacac" opacity="1.00" d=" M 255.21 284.19 C 256.39 282.76 258.26 282.47 259.89 281.84 C 259.77 285.47 259.00 289.11 257.22 292.31 C 255.23 296.49 250.69 298.37 247.76 301.74 C 245.80 303.70 244.35 306.29 241.85 307.65 C 240.17 307.33 237.67 306.27 238.22 304.15 C 238.71 302.53 240.20 301.49 241.27 300.26 C 246.42 295.35 250.27 289.29 255.21 284.19 Z" />
</g>
<g id="#d0d0d0ff">
<path fill="#d0d0d0" opacity="1.00" d=" M 257.62 299.55 C 259.69 294.41 258.46 287.74 262.97 283.73 C 264.04 284.19 264.64 285.00 264.76 286.16 C 265.28 289.50 265.02 292.90 264.89 296.26 C 264.57 293.51 263.43 290.97 262.23 288.50 C 258.36 297.52 261.32 307.80 258.02 317.01 C 256.30 317.83 254.46 318.36 252.65 318.95 C 251.81 320.79 251.00 322.65 250.22 324.52 C 245.82 325.60 241.29 325.87 236.78 325.67 C 237.62 322.66 238.79 319.61 238.42 316.44 C 238.30 313.92 237.39 311.14 239.10 308.94 C 242.19 310.58 240.72 314.92 241.18 317.80 C 243.57 316.35 246.18 315.17 248.20 313.20 C 250.17 310.21 250.27 306.33 252.38 303.42 C 254.05 302.03 255.98 300.99 257.62 299.55 Z" />
</g>
<g id="#454444ff">
<path fill="#454444" opacity="1.00" d=" M 210.83 286.81 C 211.25 287.08 212.08 287.60 212.49 287.87 C 219.85 293.03 226.09 299.62 232.80 305.57 C 233.97 306.88 235.54 308.17 235.61 310.07 C 236.00 317.54 234.92 325.07 235.96 332.52 L 235.13 332.44 C 234.25 325.25 235.14 318.01 234.55 310.82 L 234.09 310.21 L 233.53 309.50 C 231.04 307.32 228.58 305.10 226.29 302.71 C 221.17 297.42 215.07 293.15 210.32 287.49 L 210.83 286.81 Z" />
<path fill="#454444" opacity="1.00" d=" M 303.32 415.18 C 305.55 419.23 308.71 423.16 309.24 427.86 C 307.28 431.42 303.21 432.61 299.54 433.52 C 299.88 433.99 300.22 434.47 300.57 434.96 C 298.20 435.43 295.85 435.92 293.49 436.42 C 293.74 436.76 294.00 437.10 294.25 437.46 C 290.27 439.50 286.45 441.82 282.58 444.07 C 279.06 437.65 276.22 430.89 272.61 424.53 C 273.75 423.61 274.75 421.53 276.45 422.57 C 281.10 424.66 286.08 422.97 290.78 421.98 C 295.51 420.93 299.36 417.79 303.32 415.18 Z" />
</g>
<g id="#020303ff">
<path fill="#020303" opacity="1.00" d=" M 205.90 292.49 C 207.38 290.83 208.91 289.21 210.32 287.49 C 215.07 293.15 221.17 297.42 226.29 302.71 C 228.58 305.10 231.04 307.32 233.53 309.50 C 231.84 310.62 230.14 311.72 228.62 313.06 C 225.51 308.93 221.02 306.24 217.49 302.53 C 214.00 298.77 210.03 295.52 205.90 292.49 Z" />
</g>
<g id="#e5e5e5ff">
<path fill="#e5e5e5" opacity="1.00" d=" M 262.23 288.50 C 263.43 290.97 264.57 293.51 264.89 296.26 C 265.23 301.20 264.70 306.14 264.17 311.04 C 263.70 314.73 264.63 318.41 264.32 322.10 C 262.23 322.83 259.77 322.71 257.93 323.98 C 256.85 326.83 256.52 329.88 255.91 332.85 C 250.06 331.64 244.06 331.68 238.20 330.62 C 235.67 330.37 237.09 327.28 236.78 325.67 C 241.29 325.87 245.82 325.60 250.22 324.52 C 251.00 322.65 251.81 320.79 252.65 318.95 C 254.46 318.36 256.30 317.83 258.02 317.01 C 261.32 307.80 258.36 297.52 262.23 288.50 Z" />
</g>
<g id="#231c195c">
<path fill="#231c19" opacity="0.36" d=" M 294.84 289.88 C 296.60 291.18 298.29 292.61 299.70 294.30 C 303.96 299.38 308.66 304.08 312.76 309.31 C 314.89 312.24 318.56 313.08 321.82 314.14 C 321.76 315.61 321.70 317.09 321.65 318.57 C 316.69 320.11 312.38 323.08 308.79 326.79 C 304.60 330.61 300.33 334.35 296.14 338.16 C 293.64 340.24 290.79 337.74 289.23 335.76 C 283.28 328.39 276.14 322.09 270.37 314.58 C 269.08 313.07 267.95 315.30 267.80 316.51 L 267.45 317.47 L 266.95 318.41 C 266.83 316.21 266.73 314.00 266.83 311.80 C 267.23 311.49 268.04 310.87 268.44 310.56 C 270.21 312.20 272.00 313.82 273.68 315.57 C 278.93 320.61 283.74 326.07 288.21 331.81 C 288.30 331.90 288.46 332.10 288.54 332.19 C 288.61 332.27 288.75 332.43 288.81 332.51 C 288.89 332.60 289.06 332.79 289.14 332.89 C 290.41 334.32 291.73 335.72 293.03 337.15 C 293.77 338.55 294.40 338.49 294.90 336.98 C 297.68 334.28 300.58 331.71 303.59 329.28 C 303.70 329.18 303.93 328.98 304.05 328.89 C 304.17 328.77 304.42 328.55 304.55 328.43 C 306.00 328.01 306.93 327.07 307.33 325.62 C 307.43 325.53 307.63 325.35 307.73 325.26 C 307.83 325.17 308.02 325.00 308.11 324.91 C 308.27 324.78 308.58 324.50 308.74 324.37 C 310.32 322.98 311.96 321.65 313.59 320.31 C 313.69 320.22 313.90 320.03 314.01 319.94 C 314.13 319.84 314.36 319.62 314.48 319.51 C 314.85 319.18 315.57 318.51 315.94 318.18 C 318.19 316.73 316.05 314.38 314.51 313.44 C 314.39 313.33 314.14 313.11 314.02 313.00 C 313.93 312.91 313.74 312.73 313.65 312.65 C 307.13 306.40 301.01 299.75 294.75 293.24 C 294.75 292.81 294.75 291.94 294.76 291.51 C 294.78 291.10 294.82 290.29 294.84 289.88 Z" />
</g>
<g id="#1c1f20ff">
<path fill="#1c1f20" opacity="1.00" d=" M 279.05 296.83 C 279.12 294.17 282.12 293.22 283.85 291.73 C 285.30 293.29 286.77 294.84 288.24 296.38 C 290.44 294.80 292.67 293.24 294.76 291.51 C 294.75 291.94 294.75 292.81 294.75 293.24 C 290.89 297.20 286.48 300.61 282.99 304.94 C 282.40 301.92 280.65 299.37 279.05 296.83 Z" />
</g>
<g id="#5e483ff3">
<path fill="#5e483f" opacity="0.95" d=" M 204.13 294.52 C 204.71 293.83 205.30 293.15 205.90 292.49 C 210.03 295.52 214.00 298.77 217.49 302.53 C 221.02 306.24 225.51 308.93 228.62 313.06 C 226.66 316.23 224.28 319.11 221.37 321.46 C 223.35 318.81 225.19 316.05 227.01 313.28 C 222.01 309.21 217.31 304.80 212.69 300.31 C 210.23 297.85 207.27 295.98 204.13 294.52 Z" />
</g>
<g id="#a67b68fe">
<path fill="#a67b68" opacity="1.00" d=" M 282.99 304.94 C 286.48 300.61 290.89 297.20 294.75 293.24 C 301.01 299.75 307.13 306.40 313.65 312.65 C 313.74 312.73 313.93 312.91 314.02 313.00 C 314.14 313.11 314.39 313.33 314.51 313.44 C 314.97 315.02 315.33 316.64 315.94 318.18 C 315.57 318.51 314.85 319.18 314.48 319.51 C 314.36 319.62 314.13 319.84 314.01 319.94 C 313.90 320.03 313.69 320.22 313.59 320.31 C 311.96 321.65 310.32 322.98 308.74 324.37 C 308.58 324.50 308.27 324.78 308.11 324.91 C 308.02 325.00 307.83 325.17 307.73 325.26 C 307.63 325.35 307.43 325.53 307.33 325.62 C 305.83 325.99 304.91 326.92 304.55 328.43 C 304.42 328.55 304.17 328.77 304.05 328.89 C 303.93 328.98 303.70 329.18 303.59 329.28 C 300.58 331.71 297.68 334.28 294.90 336.98 C 294.43 337.02 293.50 337.11 293.03 337.15 C 291.73 335.72 290.41 334.32 289.14 332.89 C 289.06 332.79 288.89 332.60 288.81 332.51 C 288.75 332.43 288.61 332.27 288.54 332.19 C 288.46 332.10 288.30 331.90 288.21 331.81 C 283.74 326.07 278.93 320.61 273.68 315.57 C 273.68 310.11 279.83 308.42 282.99 304.94 M 283.30 310.25 C 281.21 311.35 279.44 313.94 280.75 316.26 C 282.84 320.00 286.02 323.00 288.81 326.22 C 290.24 328.10 292.57 328.66 294.71 329.35 C 298.09 325.52 301.97 322.18 305.52 318.51 C 306.98 317.09 307.94 314.40 306.25 312.79 C 304.35 310.64 301.76 309.27 299.75 307.24 C 297.92 305.26 296.57 302.91 295.14 300.64 C 291.39 304.09 287.65 307.57 283.30 310.25 Z" />
</g>
<g id="#b48672fe">
<path fill="#b48672" opacity="1.00" d=" M 186.20 312.87 C 193.10 307.76 198.72 301.14 204.13 294.52 C 207.27 295.98 210.23 297.85 212.69 300.31 C 217.31 304.80 222.01 309.21 227.01 313.28 C 225.19 316.05 223.35 318.81 221.37 321.46 C 216.71 326.23 212.94 331.85 207.86 336.19 C 206.18 336.18 204.59 335.57 203.02 335.04 C 200.94 333.07 199.00 330.94 196.91 328.98 C 197.06 327.27 197.20 325.56 197.35 323.85 C 198.69 323.81 200.03 323.76 201.37 323.88 C 203.68 325.41 205.52 327.54 207.52 329.44 C 210.53 324.33 216.89 322.82 220.11 318.05 C 222.27 315.10 218.39 313.08 216.62 311.29 C 212.35 308.03 209.86 302.07 204.17 301.01 C 200.60 304.14 197.59 307.86 194.24 311.21 C 192.15 313.16 191.88 316.12 191.30 318.75 C 189.54 318.83 187.79 318.90 186.04 318.99 C 183.57 317.35 184.80 314.78 186.20 312.87 Z" />
</g>
<g id="#9f7765ff">
<path fill="#9f7765" opacity="1.00" d=" M 194.24 311.21 C 197.59 307.86 200.60 304.14 204.17 301.01 C 209.86 302.07 212.35 308.03 216.62 311.29 C 218.39 313.08 222.27 315.10 220.11 318.05 C 216.89 322.82 210.53 324.33 207.52 329.44 C 205.52 327.54 203.68 325.41 201.37 323.88 C 200.03 323.76 198.69 323.81 197.35 323.85 C 197.20 325.56 197.06 327.27 196.91 328.98 C 194.05 326.64 191.38 324.08 188.69 321.55 C 187.80 320.70 186.90 319.85 186.04 318.99 C 187.79 318.90 189.54 318.83 191.30 318.75 C 191.88 316.12 192.15 313.16 194.24 311.21 Z" />
</g>
<g id="#926c5dff">
<path fill="#926c5d" opacity="1.00" d=" M 283.30 310.25 C 287.65 307.57 291.39 304.09 295.14 300.64 C 296.57 302.91 297.92 305.26 299.75 307.24 C 301.76 309.27 304.35 310.64 306.25 312.79 C 307.94 314.40 306.98 317.09 305.52 318.51 C 301.97 322.18 298.09 325.52 294.71 329.35 C 292.57 328.66 290.24 328.10 288.81 326.22 C 286.02 323.00 282.84 320.00 280.75 316.26 C 279.44 313.94 281.21 311.35 283.30 310.25 Z" />
</g>
<g id="#3e302999">
<path fill="#3e3029" opacity="0.60" d=" M 228.62 313.06 C 230.14 311.72 231.84 310.62 233.53 309.50 L 234.09 310.21 C 234.17 311.81 234.10 313.43 233.91 315.03 C 232.98 314.36 232.03 313.72 231.08 313.09 C 224.32 321.29 216.96 328.97 210.13 337.10 C 208.70 339.17 205.94 338.88 203.84 338.22 C 203.52 337.17 203.25 336.11 203.02 335.04 C 204.59 335.57 206.18 336.18 207.86 336.19 C 212.94 331.85 216.71 326.23 221.37 321.46 C 224.28 319.11 226.66 316.23 228.62 313.06 Z" />
</g>
<g id="#7b7b7bff">
<path fill="#7b7b7b" opacity="1.00" d=" M 234.09 310.21 L 234.55 310.82 C 235.14 318.01 234.25 325.25 235.13 332.44 L 235.96 332.52 C 242.71 332.87 249.40 333.89 256.08 334.96 C 257.01 332.11 257.86 329.24 258.88 326.43 L 259.43 325.65 C 259.30 333.10 259.81 340.57 259.37 348.00 C 257.65 349.53 255.10 349.41 252.98 349.98 C 253.59 351.94 254.16 353.94 255.13 355.76 C 261.35 366.68 267.01 377.91 273.07 388.92 C 277.09 395.98 280.30 403.49 284.90 410.22 C 285.81 413.20 285.94 417.08 282.89 418.90 C 280.28 420.77 277.18 419.02 275.40 416.90 C 270.27 406.15 264.13 395.93 258.74 385.32 C 254.87 377.91 250.91 370.54 246.92 363.20 C 244.65 358.94 241.44 354.97 240.70 350.08 C 240.40 344.98 241.62 339.94 241.45 334.84 C 239.04 334.59 236.63 334.35 234.22 334.09 C 233.37 328.36 233.55 322.55 233.71 316.78 C 233.76 316.34 233.86 315.47 233.91 315.03 C 234.10 313.43 234.17 311.81 234.09 310.21 M 244.08 340.39 C 242.29 344.88 244.83 349.01 246.41 353.11 L 245.64 353.79 C 245.64 357.44 247.86 360.66 249.41 363.86 C 253.15 370.34 256.42 377.09 260.44 383.42 C 264.12 390.10 267.48 396.95 271.31 403.56 C 274.13 408.25 275.74 413.79 279.93 417.53 C 281.20 416.40 282.46 415.26 283.73 414.13 C 274.72 397.53 266.06 380.75 256.97 364.19 C 254.85 360.49 253.32 356.42 250.64 353.06 C 250.73 351.52 250.84 350.00 250.96 348.48 C 253.03 348.27 255.09 348.03 257.16 347.79 C 257.51 345.26 257.36 342.71 256.77 340.23 C 252.54 340.37 248.31 340.47 244.08 340.39 Z" />
</g>
<g id="#3d3d3da9">
<path fill="#3d3d3d" opacity="0.66" d=" M 266.83 311.80 C 267.14 311.31 267.76 310.33 268.07 309.84 L 268.44 310.56 C 268.04 310.87 267.23 311.49 266.83 311.80 Z" />
</g>
<g id="#18131147">
<path fill="#181311" opacity="0.28" d=" M 178.87 313.85 C 180.61 312.72 182.71 312.24 184.75 312.71 C 185.11 312.75 185.84 312.83 186.20 312.87 C 184.80 314.78 183.57 317.35 186.04 318.99 C 186.90 319.85 187.80 320.70 188.69 321.55 C 184.77 321.53 181.28 319.75 178.05 317.72 C 178.29 316.42 178.32 315.06 178.87 313.85 Z" />
</g>
<g id="#4f3d34a9">
<path fill="#4f3d34" opacity="0.66" d=" M 313.65 312.65 C 313.74 312.73 313.93 312.91 314.02 313.00 C 313.93 312.91 313.74 312.73 313.65 312.65 Z" />
</g>
<g id="#534037ae">
<path fill="#534037" opacity="0.68" d=" M 314.02 313.00 C 314.14 313.11 314.39 313.33 314.51 313.44 C 314.39 313.33 314.14 313.11 314.02 313.00 Z" />
</g>
<g id="#574239b3">
<path fill="#574239" opacity="0.70" d=" M 314.51 313.44 C 316.05 314.38 318.19 316.73 315.94 318.18 C 315.33 316.64 314.97 315.02 314.51 313.44 Z" />
</g>
<g id="#0f0e0e54">
<path fill="#0f0e0e" opacity="0.33" d=" M 232.34 318.32 C 232.68 317.93 233.37 317.17 233.71 316.78 C 233.55 322.55 233.37 328.36 234.22 334.09 C 234.72 338.90 235.13 344.11 232.55 348.45 C 228.80 355.12 225.93 362.25 221.98 368.81 C 214.69 381.42 208.14 394.43 201.59 407.44 C 197.86 414.33 193.38 420.90 190.86 428.38 C 198.96 434.20 208.86 436.90 216.45 443.51 C 216.93 443.53 217.91 443.56 218.39 443.58 C 220.80 438.61 223.45 433.77 225.50 428.65 C 229.67 423.19 232.59 416.96 235.93 410.99 C 237.59 408.04 238.65 404.80 239.60 401.57 C 239.98 401.87 240.36 402.17 240.74 402.48 C 242.57 397.47 245.30 392.84 247.01 387.78 C 247.35 385.58 249.99 385.33 251.76 385.71 C 253.07 386.34 253.42 387.93 254.10 389.11 C 255.99 393.62 257.95 398.13 260.60 402.26 C 264.86 408.84 267.34 416.38 271.69 422.92 C 271.92 423.32 272.38 424.13 272.61 424.53 C 276.22 430.89 279.06 437.65 282.58 444.07 C 286.45 441.82 290.27 439.50 294.25 437.46 C 294.00 437.10 293.74 436.76 293.49 436.42 C 295.85 435.92 298.20 435.43 300.57 434.96 C 300.22 434.47 299.88 433.99 299.54 433.52 C 303.21 432.61 307.28 431.42 309.24 427.86 C 308.71 423.16 305.55 419.23 303.32 415.18 L 302.82 414.34 C 300.51 408.78 297.57 403.55 294.43 398.43 C 287.43 384.27 279.26 370.71 272.64 356.36 C 270.99 352.43 267.02 349.57 266.73 345.11 C 266.26 338.57 266.51 331.99 266.76 325.44 C 267.03 322.79 267.33 320.13 267.45 317.47 L 267.80 316.51 C 268.27 317.96 268.86 319.41 268.76 320.97 C 268.68 327.99 268.56 335.01 268.63 342.03 C 268.61 344.34 269.29 346.58 270.37 348.62 C 283.42 372.91 296.23 397.34 309.43 421.56 C 310.75 424.03 312.98 427.26 310.99 429.97 C 308.45 432.67 304.81 433.88 301.62 435.62 C 297.69 437.75 293.73 439.82 289.70 441.76 C 286.83 442.85 286.44 446.19 285.50 448.71 C 284.05 448.74 282.61 448.79 281.17 448.84 C 280.19 445.33 279.19 441.80 277.57 438.53 C 270.20 424.27 262.46 410.21 254.91 396.05 C 253.58 393.58 252.54 390.97 251.54 388.35 C 250.99 388.33 249.89 388.28 249.34 388.25 C 243.74 401.25 236.35 413.37 229.92 425.96 C 226.28 433.45 221.03 440.30 219.62 448.70 C 217.94 448.71 216.26 448.72 214.59 448.74 C 214.02 446.47 214.05 443.53 211.64 442.33 C 204.85 438.38 197.57 435.24 190.87 431.14 C 188.34 429.62 188.49 426.10 190.00 423.91 C 196.03 413.47 201.58 402.75 207.11 392.04 C 214.08 379.31 220.88 366.50 227.64 353.67 C 229.73 349.61 232.62 345.65 232.70 340.90 C 232.82 333.37 231.33 325.83 232.34 318.32 Z" />
</g>
<g id="#564138a4">
<path fill="#564138" opacity="0.64" d=" M 314.01 319.94 C 314.13 319.84 314.36 319.62 314.48 319.51 C 314.36 319.62 314.13 319.84 314.01 319.94 Z" />
</g>
<g id="#4f3c3391">
<path fill="#4f3c33" opacity="0.57" d=" M 313.59 320.31 C 313.69 320.22 313.90 320.03 314.01 319.94 C 313.90 320.03 313.69 320.22 313.59 320.31 Z" />
</g>
<g id="#5b463ca8">
<path fill="#5b463c" opacity="0.66" d=" M 308.11 324.91 C 308.27 324.78 308.58 324.50 308.74 324.37 C 308.58 324.50 308.27 324.78 308.11 324.91 Z" />
</g>
<g id="#574339a4">
<path fill="#574339" opacity="0.64" d=" M 307.73 325.26 C 307.83 325.17 308.02 325.00 308.11 324.91 C 308.02 325.00 307.83 325.17 307.73 325.26 Z" />
</g>
<g id="#554238a2">
<path fill="#554238" opacity="0.64" d=" M 307.33 325.62 C 307.43 325.53 307.63 325.35 307.73 325.26 C 307.63 325.35 307.43 325.53 307.33 325.62 Z" />
</g>
<g id="#5a453baa">
<path fill="#5a453b" opacity="0.67" d=" M 304.55 328.43 C 304.91 326.92 305.83 325.99 307.33 325.62 C 306.93 327.07 306.00 328.01 304.55 328.43 Z" />
</g>
<g id="#46363097">
<path fill="#463630" opacity="0.59" d=" M 304.05 328.89 C 304.17 328.77 304.42 328.55 304.55 328.43 C 304.42 328.55 304.17 328.77 304.05 328.89 Z" />
</g>
<g id="#44342d94">
<path fill="#44342d" opacity="0.58" d=" M 303.59 329.28 C 303.70 329.18 303.93 328.98 304.05 328.89 C 303.93 328.98 303.70 329.18 303.59 329.28 Z" />
</g>
<g id="#3f302997">
<path fill="#3f3029" opacity="0.59" d=" M 288.21 331.81 C 288.30 331.90 288.46 332.10 288.54 332.19 C 288.46 332.10 288.30 331.90 288.21 331.81 Z" />
</g>
<g id="#44342d9d">
<path fill="#44342d" opacity="0.62" d=" M 288.54 332.19 C 288.61 332.27 288.75 332.43 288.81 332.51 C 288.75 332.43 288.61 332.27 288.54 332.19 Z" />
</g>
<g id="#4c3932a5">
<path fill="#4c3932" opacity="0.65" d=" M 288.81 332.51 C 288.89 332.60 289.06 332.79 289.14 332.89 C 289.06 332.79 288.89 332.60 288.81 332.51 Z" />
</g>
<g id="#44352f97">
<path fill="#44352f" opacity="0.59" d=" M 293.03 337.15 C 293.50 337.11 294.43 337.02 294.90 336.98 C 294.40 338.49 293.77 338.55 293.03 337.15 Z" />
</g>
<g id="#e9e8e8ff">
<path fill="#e9e8e8" opacity="1.00" d=" M 244.08 340.39 C 248.31 340.47 252.54 340.37 256.77 340.23 C 257.36 342.71 257.51 345.26 257.16 347.79 C 255.09 348.03 253.03 348.27 250.96 348.48 C 250.84 350.00 250.73 351.52 250.64 353.06 C 250.00 352.27 249.36 351.49 248.72 350.72 C 247.93 351.50 247.16 352.29 246.41 353.11 C 244.83 349.01 242.29 344.88 244.08 340.39 Z" />
</g>
<g id="#fcfcfcff">
<path fill="#fcfcfc" opacity="1.00" d=" M 246.41 353.11 C 247.16 352.29 247.93 351.50 248.72 350.72 C 249.36 351.49 250.00 352.27 250.64 353.06 C 253.32 356.42 254.85 360.49 256.97 364.19 C 266.06 380.75 274.72 397.53 283.73 414.13 C 282.46 415.26 281.20 416.40 279.93 417.53 C 275.74 413.79 274.13 408.25 271.31 403.56 C 267.48 396.95 264.12 390.10 260.44 383.42 C 256.42 377.09 253.15 370.34 249.41 363.86 C 247.86 360.66 245.64 357.44 245.64 353.79 L 246.41 353.11 Z" />
</g>
<g id="#424242ff">
<path fill="#424242" opacity="1.00" d=" M 234.02 358.91 C 235.87 357.55 238.69 358.15 239.85 360.12 C 241.74 363.03 243.26 367.03 241.31 370.29 C 233.63 384.37 226.06 398.53 218.75 412.81 C 217.26 415.62 213.61 417.06 212.61 419.95 C 215.70 424.30 221.02 426.11 225.50 428.65 C 223.45 433.77 220.80 438.61 218.39 443.58 C 217.91 443.56 216.93 443.53 216.45 443.51 C 208.86 436.90 198.96 434.20 190.86 428.38 C 193.38 420.90 197.86 414.33 201.59 407.44 C 203.00 408.60 204.41 409.77 205.82 410.94 C 211.04 402.02 215.97 392.94 220.78 383.79 C 224.07 377.46 227.83 371.38 230.76 364.86 C 231.74 362.82 232.58 360.68 234.02 358.91 M 233.88 362.63 C 233.05 367.66 229.23 371.35 227.25 375.90 C 223.66 383.48 219.45 390.73 215.28 398.01 C 213.17 402.42 209.31 406.81 210.55 412.03 C 212.02 414.61 215.03 413.40 217.08 412.36 C 218.31 407.97 221.00 404.21 222.78 400.05 C 225.54 397.11 226.32 392.98 228.41 389.61 C 231.87 383.78 234.73 377.63 237.68 371.53 C 239.32 368.30 239.33 364.17 237.28 361.11 C 236.14 361.61 235.01 362.12 233.88 362.63 Z" />
</g>
<g id="#f9f9f9ff">
<path fill="#f9f9f9" opacity="1.00" d=" M 233.88 362.63 C 235.01 362.12 236.14 361.61 237.28 361.11 C 239.33 364.17 239.32 368.30 237.68 371.53 C 234.73 377.63 231.87 383.78 228.41 389.61 C 226.32 392.98 225.54 397.11 222.78 400.05 C 221.00 404.21 218.31 407.97 217.08 412.36 C 215.03 413.40 212.02 414.61 210.55 412.03 C 209.31 406.81 213.17 402.42 215.28 398.01 C 219.45 390.73 223.66 383.48 227.25 375.90 C 229.23 371.35 233.05 367.66 233.88 362.63 Z" />
</g>
<g id="#2e2e2eff">
<path fill="#2e2e2e" opacity="1.00" d=" M 284.90 410.22 C 286.29 412.99 287.00 416.03 288.20 418.88 C 289.11 419.81 290.49 420.44 291.77 419.84 C 295.63 418.38 298.98 415.85 302.82 414.34 L 303.32 415.18 C 299.36 417.79 295.51 420.93 290.78 421.98 C 286.08 422.97 281.10 424.66 276.45 422.57 C 274.75 421.53 273.75 423.61 272.61 424.53 C 272.38 424.13 271.92 423.32 271.69 422.92 C 272.92 420.91 274.16 418.90 275.40 416.90 C 277.18 419.02 280.28 420.77 282.89 418.90 C 285.94 417.08 285.81 413.20 284.90 410.22 Z" />
</g>
</svg>
